%
M48
M72
T01C0.0276
T02C0.0315
T03C0.0320
T04C0.0350
T05C0.0360
T06C0.0400
T07C0.0640
T08C0.0669
T09C0.1024
T10C0.1102
T11C0.1180
T12C0.1280
%
T01
X11941Y8806
X12941Y8806
X13941Y8806
X14941Y8806
X15941Y8806
X16941Y8806
X17941Y8806
X18941Y8806
X19941Y8806
X20941Y8806
X21941Y8806
X22941Y8806
X23941Y8806
X24941Y8806
X25941Y8806
X26941Y8806
X27941Y8806
X28941Y8806
X29941Y8806
X30941Y8806
X30941Y14806
X29941Y14806
X28941Y14806
X27941Y14806
X26941Y14806
X25941Y14806
X24941Y14806
X23941Y14806
X22941Y14806
X21941Y14806
X20941Y14806
X19941Y14806
X18941Y14806
X17941Y14806
X16941Y14806
X15941Y14806
X14941Y14806
X13941Y14806
X12941Y14806
X11941Y14806
X8998Y16572
X10691Y17557
X29441Y18556
X29441Y19556
X30441Y20556
X31441Y20556
T02
X11941Y21306
X10941Y21306
X9941Y21306
X8941Y21306
X29691Y3088
X30191Y2525
X30691Y3088
X31191Y2525
T03
X28566Y2431
X28566Y3431
X28441Y4556
X28441Y5556
X28441Y6556
X31441Y6556
X31441Y5556
X31441Y4556
X33066Y4681
X34066Y4681
X29441Y10306
X29441Y11306
X29441Y12306
X29441Y13306
X26441Y13306
X26441Y12306
X26441Y11306
X26441Y10306
X22941Y7556
X21941Y7556
X20941Y7306
X19941Y7306
X18941Y7306
X17941Y7306
X16941Y7306
X15941Y7306
X14941Y7306
X13941Y7306
X12941Y7306
X11941Y7306
X10941Y7306
X9941Y7306
X8941Y7306
X7941Y7306
X7191Y7306
X6816Y6306
X6816Y5306
X7941Y4306
X8941Y4306
X9941Y4306
X10941Y4306
X11941Y4306
X12941Y4306
X13941Y4306
X14941Y4306
X15941Y4306
X16941Y4306
X17941Y4306
X18941Y4306
X19941Y4306
X20941Y4306
X22066Y4306
X22066Y3306
X21941Y5681
X22941Y5681
X17941Y3056
X16941Y3056
X13941Y3056
X12941Y3056
X11941Y3056
X10941Y3056
X5441Y6181
X5191Y4806
X4191Y4806
X2441Y6181
X4191Y7306
X9441Y8556
X10441Y8556
X10441Y9806
X9441Y9806
X9441Y10806
X10441Y10806
X13066Y11806
X10441Y12806
X9441Y12806
X9441Y13806
X10441Y13806
X10441Y15056
X9441Y15056
X5941Y16306
X2941Y16306
X13941Y18056
X14941Y18056
X15941Y18056
X16941Y18056
X17941Y18306
X17941Y19306
X16941Y21056
X15941Y21056
X14941Y21056
X13941Y21056
X20241Y16431
X22141Y16431
X16066Y11806
T04
X7941Y16306
X6941Y16306
X6941Y17306
X7941Y17306
X7941Y18306
X6941Y18306
X5941Y18306
X4941Y18306
X3941Y18306
X2941Y18306
X2941Y17306
X3941Y17306
X4941Y17306
X5941Y17306
X5941Y19306
X6941Y19306
X7941Y19306
X7941Y20306
X6941Y20306
X5941Y20306
X5941Y21306
X6941Y21306
X7941Y21306
X2941Y19306
X17941Y20306
X18941Y20306
X19941Y20306
X19941Y21306
X18941Y21306
X17941Y21306
X18941Y19306
X25566Y5556
X25566Y2556
T05
X7941Y10056
X6941Y10556
X7941Y11056
X6941Y11556
X7941Y12056
X6941Y12556
X7941Y13056
X6941Y13556
T06
X3111Y13296
X2511Y14296
X2511Y10306
X3111Y9306
X6441Y2806
X7441Y2806
X8441Y2806
X23941Y7556
X24941Y7556
X25941Y7556
X26941Y7556
X27941Y7556
X28941Y7556
X29941Y7556
X30941Y7556
X26846Y4056
X24286Y4056
X32661Y11916
X32661Y13696
X35221Y13696
X35221Y11916
X29941Y16056
X28941Y16056
X27941Y16056
X26941Y16056
X25941Y16056
X24941Y16056
X23941Y16056
X27691Y17306
X28691Y17306
X27691Y18556
X27691Y19556
X27691Y20556
X28441Y21306
X29441Y21306
X19941Y19306
X19941Y18306
X18441Y16056
X17441Y16056
X16441Y16056
X15441Y16056
X14441Y16056
X13441Y16056
X12441Y16056
X11441Y16056
X10941Y19806
X9941Y19806
X8941Y19806
X11941Y19806
X12941Y19806
T07
X5641Y14906
X5641Y8706
T08
X32941Y8306
T09
X34713Y8306
X32941Y6338
X32941Y10275
T10
X4441Y2806
X21816Y19556
X33441Y20306
X33441Y2806
X4441Y20306
T11
X30548Y17306
X32910Y17306
X31729Y19157
T12
X4441Y14056
X4441Y9556
M30
