G75*
G70*
%OFA0B0*%
%FSLAX24Y24*%
%IPPOS*%
%LPD*%
%AMOC8*
5,1,8,0,0,1.08239X$1,22.5*
%
%ADD10C,0.0090*%
%ADD11C,0.0080*%
%ADD12R,0.0350X0.0500*%
%ADD13C,0.0160*%
%ADD14R,0.0150X0.0200*%
%ADD15C,0.0100*%
D10*
X009486Y001851D02*
X009486Y002322D01*
X009565Y002165D02*
X009721Y002165D01*
X009800Y002086D01*
X009800Y001851D01*
X010080Y001930D02*
X010159Y001851D01*
X010080Y001930D02*
X010080Y002243D01*
X010002Y002165D02*
X010159Y002165D01*
X010346Y002165D02*
X010502Y002165D01*
X010424Y002243D02*
X010424Y001930D01*
X010502Y001851D01*
X010689Y001851D02*
X010925Y001851D01*
X011003Y001930D01*
X011003Y002086D01*
X010925Y002165D01*
X010689Y002165D01*
X010689Y001695D01*
X011205Y001851D02*
X011205Y001930D01*
X011283Y001930D01*
X011283Y001851D01*
X011205Y001851D01*
X011205Y002086D02*
X011205Y002165D01*
X011283Y002165D01*
X011283Y002086D01*
X011205Y002086D01*
X011463Y001851D02*
X011776Y002322D01*
X011978Y001851D02*
X012292Y002322D01*
X012494Y002165D02*
X012494Y001930D01*
X012572Y001851D01*
X012651Y001930D01*
X012729Y001851D01*
X012808Y001930D01*
X012808Y002165D01*
X013010Y002165D02*
X013010Y001930D01*
X013088Y001851D01*
X013166Y001930D01*
X013245Y001851D01*
X013323Y001930D01*
X013323Y002165D01*
X013525Y002165D02*
X013525Y001930D01*
X013604Y001851D01*
X013682Y001930D01*
X013761Y001851D01*
X013839Y001930D01*
X013839Y002165D01*
X014041Y001930D02*
X014119Y001930D01*
X014119Y001851D01*
X014041Y001851D01*
X014041Y001930D01*
X014299Y001930D02*
X014299Y002086D01*
X014377Y002165D01*
X014612Y002165D01*
X014612Y002322D02*
X014612Y001851D01*
X014377Y001851D01*
X014299Y001930D01*
X014814Y001930D02*
X014893Y001851D01*
X015050Y001851D01*
X015128Y002008D02*
X014814Y002008D01*
X014814Y001930D02*
X014814Y002086D01*
X014893Y002165D01*
X015050Y002165D01*
X015128Y002086D01*
X015128Y002008D01*
X015330Y002008D02*
X015644Y002008D01*
X015644Y002086D01*
X015565Y002165D01*
X015408Y002165D01*
X015330Y002086D01*
X015330Y001930D01*
X015408Y001851D01*
X015565Y001851D01*
X015846Y001851D02*
X016081Y001851D01*
X016159Y001930D01*
X016159Y002086D01*
X016081Y002165D01*
X015846Y002165D01*
X015846Y001695D01*
X016361Y001930D02*
X016440Y001851D01*
X016675Y001851D01*
X016675Y002322D01*
X016675Y002165D02*
X016440Y002165D01*
X016361Y002086D01*
X016361Y001930D01*
X016877Y001930D02*
X016955Y001851D01*
X017190Y001851D01*
X017190Y002086D01*
X017112Y002165D01*
X016955Y002165D01*
X016955Y002008D02*
X017190Y002008D01*
X017393Y002008D02*
X017549Y002165D01*
X017628Y002165D01*
X017822Y002086D02*
X017822Y001930D01*
X017901Y001851D01*
X018136Y001851D01*
X018338Y001851D02*
X018338Y001930D01*
X018416Y001930D01*
X018416Y001851D01*
X018338Y001851D01*
X018596Y001930D02*
X018674Y001851D01*
X018909Y001851D01*
X019111Y001930D02*
X019190Y001851D01*
X019346Y001851D01*
X019425Y001930D01*
X019425Y002086D01*
X019346Y002165D01*
X019190Y002165D01*
X019111Y002086D01*
X019111Y001930D01*
X018909Y002165D02*
X018674Y002165D01*
X018596Y002086D01*
X018596Y001930D01*
X018136Y002165D02*
X017901Y002165D01*
X017822Y002086D01*
X017393Y002165D02*
X017393Y001851D01*
X016955Y002008D02*
X016877Y001930D01*
X019627Y001851D02*
X019627Y002165D01*
X019705Y002165D01*
X019784Y002086D01*
X019862Y002165D01*
X019940Y002086D01*
X019940Y001851D01*
X019784Y001851D02*
X019784Y002086D01*
X020143Y001851D02*
X020456Y002322D01*
X020658Y002165D02*
X020658Y001930D01*
X020737Y001851D01*
X020972Y001851D01*
X020972Y001773D02*
X020893Y001695D01*
X020815Y001695D01*
X020972Y001773D02*
X020972Y002165D01*
X021174Y002165D02*
X021409Y002165D01*
X021487Y002086D01*
X021487Y001930D01*
X021409Y001851D01*
X021174Y001851D01*
X021174Y002322D01*
X021689Y002086D02*
X021689Y001930D01*
X021768Y001851D01*
X021925Y001851D01*
X022003Y001930D01*
X022003Y002086D01*
X021925Y002165D01*
X021768Y002165D01*
X021689Y002086D01*
X022205Y002165D02*
X022519Y001851D01*
X022721Y001851D02*
X023034Y002165D01*
X023034Y002243D01*
X022956Y002322D01*
X022799Y002322D01*
X022721Y002243D01*
X022519Y002165D02*
X022205Y001851D01*
X022721Y001851D02*
X023034Y001851D01*
X009565Y002165D02*
X009486Y002086D01*
D11*
X004441Y001756D02*
X004441Y001656D01*
X005941Y002306D02*
X005941Y003306D01*
X008941Y003306D01*
X008941Y002306D01*
X008441Y002306D01*
X006441Y002306D01*
X005941Y002306D01*
X003850Y002806D02*
X003852Y002860D01*
X003860Y002913D01*
X003872Y002965D01*
X003889Y003017D01*
X003910Y003066D01*
X003936Y003113D01*
X003966Y003158D01*
X004000Y003199D01*
X004038Y003238D01*
X004079Y003273D01*
X004123Y003304D01*
X004169Y003331D01*
X004218Y003353D01*
X004269Y003371D01*
X004321Y003385D01*
X004374Y003393D01*
X004428Y003397D01*
X004481Y003396D01*
X004535Y003390D01*
X004587Y003379D01*
X004639Y003363D01*
X004689Y003343D01*
X004736Y003318D01*
X004782Y003289D01*
X004824Y003256D01*
X004864Y003219D01*
X004899Y003179D01*
X004931Y003136D01*
X004959Y003090D01*
X004983Y003041D01*
X005002Y002991D01*
X005017Y002939D01*
X005026Y002886D01*
X005031Y002833D01*
X005031Y002779D01*
X005026Y002726D01*
X005017Y002673D01*
X005002Y002621D01*
X004983Y002571D01*
X004959Y002522D01*
X004931Y002476D01*
X004899Y002433D01*
X004864Y002393D01*
X004824Y002356D01*
X004782Y002323D01*
X004737Y002294D01*
X004689Y002269D01*
X004639Y002249D01*
X004587Y002233D01*
X004535Y002222D01*
X004481Y002216D01*
X004428Y002215D01*
X004374Y002219D01*
X004321Y002227D01*
X004269Y002241D01*
X004218Y002259D01*
X004169Y002281D01*
X004123Y002308D01*
X004079Y002339D01*
X004038Y002374D01*
X004000Y002413D01*
X003966Y002454D01*
X003936Y002499D01*
X003910Y002546D01*
X003889Y002595D01*
X003872Y002647D01*
X003860Y002699D01*
X003852Y002752D01*
X003850Y002806D01*
X003291Y002806D02*
X003296Y002911D01*
X003310Y003014D01*
X003334Y003116D01*
X003366Y003216D01*
X003408Y003312D01*
X003458Y003404D01*
X003517Y003490D01*
X003583Y003572D01*
X003656Y003646D01*
X003736Y003714D01*
X003821Y003775D01*
X003912Y003827D01*
X004007Y003871D01*
X004106Y003906D01*
X004207Y003932D01*
X004310Y003949D01*
X004415Y003956D01*
X004519Y003953D01*
X004623Y003941D01*
X004726Y003920D01*
X004826Y003890D01*
X004923Y003850D01*
X005016Y003802D01*
X005104Y003746D01*
X005187Y003681D01*
X005263Y003610D01*
X005333Y003532D01*
X005395Y003448D01*
X005450Y003358D01*
X005496Y003264D01*
X005533Y003166D01*
X005561Y003066D01*
X005580Y002963D01*
X005590Y002858D01*
X005590Y002754D01*
X005580Y002649D01*
X005561Y002546D01*
X005533Y002446D01*
X005496Y002348D01*
X005450Y002254D01*
X005395Y002164D01*
X005333Y002080D01*
X005263Y002002D01*
X005187Y001931D01*
X005104Y001866D01*
X005016Y001810D01*
X004923Y001762D01*
X004826Y001722D01*
X004726Y001692D01*
X004623Y001671D01*
X004519Y001659D01*
X004415Y001656D01*
X004310Y001663D01*
X004207Y001680D01*
X004106Y001706D01*
X004007Y001741D01*
X003912Y001785D01*
X003821Y001837D01*
X003736Y001898D01*
X003656Y001966D01*
X003583Y002040D01*
X003517Y002122D01*
X003458Y002208D01*
X003408Y002300D01*
X003366Y002396D01*
X003334Y002496D01*
X003310Y002598D01*
X003296Y002701D01*
X003291Y002806D01*
X004441Y003856D02*
X004441Y003956D01*
X004561Y004506D02*
X004561Y005106D01*
X004811Y005106D02*
X004811Y004506D01*
X005341Y004356D02*
X005369Y004358D01*
X005397Y004364D01*
X005424Y004374D01*
X005449Y004388D01*
X005472Y004405D01*
X005492Y004425D01*
X005509Y004448D01*
X005523Y004473D01*
X005533Y004500D01*
X005539Y004528D01*
X005541Y004556D01*
X005541Y005056D01*
X005539Y005084D01*
X005533Y005112D01*
X005523Y005139D01*
X005509Y005164D01*
X005492Y005187D01*
X005472Y005207D01*
X005449Y005224D01*
X005424Y005238D01*
X005397Y005248D01*
X005369Y005254D01*
X005341Y005256D01*
X004041Y005256D01*
X004013Y005254D01*
X003985Y005248D01*
X003958Y005238D01*
X003933Y005224D01*
X003910Y005207D01*
X003890Y005187D01*
X003873Y005164D01*
X003859Y005139D01*
X003849Y005112D01*
X003843Y005084D01*
X003841Y005056D01*
X003841Y004556D01*
X003843Y004528D01*
X003849Y004500D01*
X003859Y004473D01*
X003873Y004448D01*
X003890Y004425D01*
X003910Y004405D01*
X003933Y004388D01*
X003958Y004374D01*
X003985Y004364D01*
X004013Y004358D01*
X004041Y004356D01*
X005341Y004356D01*
X005951Y003987D02*
X006091Y003987D01*
X006021Y003987D02*
X006021Y003566D01*
X005951Y003566D02*
X006091Y003566D01*
X006258Y003566D02*
X006258Y003987D01*
X006468Y003987D01*
X006538Y003917D01*
X006538Y003776D01*
X006468Y003706D01*
X006258Y003706D01*
X006398Y003706D02*
X006538Y003566D01*
X006581Y004421D02*
X006721Y004421D01*
X006791Y004491D01*
X006971Y004491D02*
X006971Y004421D01*
X006971Y004491D02*
X007251Y004772D01*
X007251Y004842D01*
X006971Y004842D01*
X007066Y004956D02*
X006566Y004956D01*
X006581Y004842D02*
X006511Y004772D01*
X006511Y004491D01*
X006581Y004421D01*
X006791Y004772D02*
X006721Y004842D01*
X006581Y004842D01*
X006566Y004956D02*
X006538Y004958D01*
X006510Y004964D01*
X006483Y004974D01*
X006458Y004988D01*
X006435Y005005D01*
X006415Y005025D01*
X006398Y005048D01*
X006384Y005073D01*
X006374Y005100D01*
X006368Y005128D01*
X006366Y005156D01*
X006366Y006456D01*
X006368Y006484D01*
X006374Y006512D01*
X006384Y006539D01*
X006398Y006564D01*
X006415Y006587D01*
X006435Y006607D01*
X006458Y006624D01*
X006483Y006638D01*
X006510Y006648D01*
X006538Y006654D01*
X006566Y006656D01*
X007066Y006656D01*
X007094Y006654D01*
X007122Y006648D01*
X007149Y006638D01*
X007174Y006624D01*
X007197Y006607D01*
X007217Y006587D01*
X007234Y006564D01*
X007248Y006539D01*
X007258Y006512D01*
X007264Y006484D01*
X007266Y006456D01*
X007266Y005156D01*
X007264Y005128D01*
X007258Y005100D01*
X007248Y005073D01*
X007234Y005048D01*
X007217Y005025D01*
X007197Y005005D01*
X007174Y004988D01*
X007149Y004974D01*
X007122Y004964D01*
X007094Y004958D01*
X007066Y004956D01*
X007441Y004806D02*
X021441Y004806D01*
X021441Y005306D01*
X021591Y005431D02*
X021591Y005931D01*
X021441Y006306D02*
X021397Y006304D01*
X021354Y006298D01*
X021312Y006289D01*
X021270Y006276D01*
X021230Y006259D01*
X021191Y006239D01*
X021154Y006216D01*
X021120Y006189D01*
X021087Y006160D01*
X021058Y006127D01*
X021031Y006093D01*
X021008Y006056D01*
X020988Y006017D01*
X020971Y005977D01*
X020958Y005935D01*
X020949Y005893D01*
X020943Y005850D01*
X020941Y005806D01*
X020943Y005762D01*
X020949Y005719D01*
X020958Y005677D01*
X020971Y005635D01*
X020988Y005595D01*
X021008Y005556D01*
X021031Y005519D01*
X021058Y005485D01*
X021087Y005452D01*
X021120Y005423D01*
X021154Y005396D01*
X021191Y005373D01*
X021230Y005353D01*
X021270Y005336D01*
X021312Y005323D01*
X021354Y005314D01*
X021397Y005308D01*
X021441Y005306D01*
X021791Y005231D02*
X023091Y005231D01*
X023119Y005233D01*
X023147Y005239D01*
X023174Y005249D01*
X023199Y005263D01*
X023222Y005280D01*
X023242Y005300D01*
X023259Y005323D01*
X023273Y005348D01*
X023283Y005375D01*
X023289Y005403D01*
X023291Y005431D01*
X023291Y005931D01*
X023289Y005959D01*
X023283Y005987D01*
X023273Y006014D01*
X023259Y006039D01*
X023242Y006062D01*
X023222Y006082D01*
X023199Y006099D01*
X023174Y006113D01*
X023147Y006123D01*
X023119Y006129D01*
X023091Y006131D01*
X021791Y006131D01*
X021726Y006271D02*
X021866Y006271D01*
X021936Y006341D01*
X022117Y006341D02*
X022117Y006411D01*
X022187Y006481D01*
X022327Y006481D01*
X022397Y006411D01*
X022397Y006341D01*
X022327Y006271D01*
X022187Y006271D01*
X022117Y006341D01*
X022187Y006481D02*
X022117Y006552D01*
X022117Y006622D01*
X022187Y006692D01*
X022327Y006692D01*
X022397Y006622D01*
X022397Y006552D01*
X022327Y006481D01*
X022636Y006616D02*
X022636Y006897D01*
X022706Y006967D01*
X022846Y006967D01*
X022916Y006897D01*
X023096Y006756D02*
X023096Y006616D01*
X023166Y006546D01*
X023306Y006546D01*
X023376Y006616D01*
X023376Y006686D01*
X023306Y006756D01*
X023096Y006756D01*
X023236Y006897D01*
X023376Y006967D01*
X023091Y007106D02*
X021791Y007106D01*
X021763Y007108D01*
X021735Y007114D01*
X021708Y007124D01*
X021683Y007138D01*
X021660Y007155D01*
X021640Y007175D01*
X021623Y007198D01*
X021609Y007223D01*
X021599Y007250D01*
X021593Y007278D01*
X021591Y007306D01*
X021591Y007806D01*
X021593Y007834D01*
X021599Y007862D01*
X021609Y007889D01*
X021623Y007914D01*
X021640Y007937D01*
X021660Y007957D01*
X021683Y007974D01*
X021708Y007988D01*
X021735Y007998D01*
X021763Y008004D01*
X021791Y008006D01*
X023091Y008006D01*
X023119Y008004D01*
X023147Y007998D01*
X023174Y007988D01*
X023199Y007974D01*
X023222Y007957D01*
X023242Y007937D01*
X023259Y007914D01*
X023273Y007889D01*
X023283Y007862D01*
X023289Y007834D01*
X023291Y007806D01*
X023291Y007306D01*
X023441Y007306D02*
X023441Y007806D01*
X023691Y008056D01*
X024191Y008056D01*
X024441Y007806D01*
X024691Y008056D01*
X025191Y008056D01*
X025441Y007806D01*
X025691Y008056D01*
X026191Y008056D01*
X026441Y007806D01*
X026691Y008056D01*
X027191Y008056D01*
X027441Y007806D01*
X027691Y008056D01*
X028191Y008056D01*
X028441Y007806D01*
X028691Y008056D01*
X029191Y008056D01*
X029441Y007806D01*
X029691Y008056D01*
X030191Y008056D01*
X030441Y007806D01*
X030691Y008056D01*
X031191Y008056D01*
X031441Y007806D01*
X031441Y007306D01*
X031191Y007056D01*
X030691Y007056D01*
X030441Y007306D01*
X030191Y007056D01*
X029691Y007056D01*
X029441Y007306D01*
X029191Y007056D01*
X028691Y007056D01*
X028441Y007306D01*
X028191Y007056D01*
X027691Y007056D01*
X027441Y007306D01*
X027191Y007056D01*
X026691Y007056D01*
X026441Y007306D01*
X026191Y007056D01*
X025691Y007056D01*
X025441Y007306D01*
X025191Y007056D01*
X024691Y007056D01*
X024441Y007306D01*
X024191Y007056D01*
X023691Y007056D01*
X023441Y007306D01*
X023291Y007306D02*
X023289Y007278D01*
X023283Y007250D01*
X023273Y007223D01*
X023259Y007198D01*
X023242Y007175D01*
X023222Y007155D01*
X023199Y007138D01*
X023174Y007124D01*
X023147Y007114D01*
X023119Y007108D01*
X023091Y007106D01*
X022916Y006616D02*
X022846Y006546D01*
X022706Y006546D01*
X022636Y006616D01*
X022571Y005981D02*
X022571Y005381D01*
X022321Y005381D02*
X022321Y005981D01*
X021791Y006131D02*
X021763Y006129D01*
X021735Y006123D01*
X021708Y006113D01*
X021683Y006099D01*
X021660Y006082D01*
X021640Y006062D01*
X021623Y006039D01*
X021609Y006014D01*
X021599Y005987D01*
X021593Y005959D01*
X021591Y005931D01*
X021726Y006271D02*
X021656Y006341D01*
X021656Y006622D01*
X021726Y006692D01*
X021866Y006692D01*
X021936Y006622D01*
X021441Y006806D02*
X021441Y006306D01*
X021391Y006806D02*
X007441Y006806D01*
X007441Y004806D01*
X007116Y005686D02*
X006516Y005686D01*
X006516Y005936D02*
X007116Y005936D01*
X006591Y006906D02*
X006441Y006906D01*
X006391Y006956D01*
X004991Y006956D01*
X004941Y006906D01*
X004791Y006906D01*
X004771Y006908D01*
X004753Y006914D01*
X004735Y006923D01*
X004720Y006935D01*
X004708Y006950D01*
X004699Y006968D01*
X004693Y006986D01*
X004691Y007006D01*
X004691Y007606D01*
X004693Y007626D01*
X004699Y007644D01*
X004708Y007662D01*
X004720Y007677D01*
X004735Y007689D01*
X004753Y007698D01*
X004771Y007704D01*
X004791Y007706D01*
X004941Y007706D01*
X004991Y007656D01*
X006391Y007656D01*
X006441Y007706D01*
X006591Y007706D01*
X006611Y007704D01*
X006629Y007698D01*
X006647Y007689D01*
X006662Y007677D01*
X006674Y007662D01*
X006683Y007644D01*
X006689Y007626D01*
X006691Y007606D01*
X006691Y007006D01*
X006689Y006986D01*
X006683Y006968D01*
X006674Y006950D01*
X006662Y006935D01*
X006647Y006923D01*
X006629Y006914D01*
X006611Y006908D01*
X006591Y006906D01*
X006227Y007146D02*
X006072Y007250D01*
X006227Y007353D01*
X006072Y007457D02*
X006072Y007146D01*
X005920Y007146D02*
X005713Y007146D01*
X005920Y007353D01*
X005920Y007405D01*
X005868Y007457D01*
X005765Y007457D01*
X005713Y007405D01*
X004841Y006581D02*
X004691Y006581D01*
X004641Y006531D01*
X003241Y006531D01*
X003191Y006581D01*
X003041Y006581D01*
X003021Y006579D01*
X003003Y006573D01*
X002985Y006564D01*
X002970Y006552D01*
X002958Y006537D01*
X002949Y006519D01*
X002943Y006501D01*
X002941Y006481D01*
X002941Y005881D01*
X002943Y005861D01*
X002949Y005843D01*
X002958Y005825D01*
X002970Y005810D01*
X002985Y005798D01*
X003003Y005789D01*
X003021Y005783D01*
X003041Y005781D01*
X003191Y005781D01*
X003241Y005831D01*
X004641Y005831D01*
X004691Y005781D01*
X004841Y005781D01*
X004861Y005783D01*
X004879Y005789D01*
X004897Y005798D01*
X004912Y005810D01*
X004924Y005825D01*
X004933Y005843D01*
X004939Y005861D01*
X004941Y005881D01*
X004941Y006481D01*
X004939Y006501D01*
X004933Y006519D01*
X004924Y006537D01*
X004912Y006552D01*
X004897Y006564D01*
X004879Y006573D01*
X004861Y006579D01*
X004841Y006581D01*
X004266Y006290D02*
X004059Y006083D01*
X004111Y006031D01*
X004215Y006031D01*
X004266Y006083D01*
X004266Y006290D01*
X004215Y006342D01*
X004111Y006342D01*
X004059Y006290D01*
X004059Y006083D01*
X003907Y006290D02*
X003700Y006083D01*
X003700Y006031D01*
X003548Y006031D02*
X003341Y006031D01*
X003548Y006238D01*
X003548Y006290D01*
X003496Y006342D01*
X003393Y006342D01*
X003341Y006290D01*
X003700Y006342D02*
X003907Y006342D01*
X003907Y006290D01*
X003641Y006846D02*
X003331Y006846D01*
X003331Y007001D01*
X003383Y007053D01*
X003486Y007053D01*
X003538Y007001D01*
X003538Y006846D01*
X003538Y006950D02*
X003641Y007053D01*
X003641Y007205D02*
X003641Y007412D01*
X003641Y007309D02*
X003331Y007309D01*
X003434Y007205D01*
X003434Y007564D02*
X003331Y007668D01*
X003641Y007668D01*
X003641Y007771D02*
X003641Y007564D01*
X002641Y007616D02*
X002590Y007564D01*
X002641Y007616D02*
X002641Y007720D01*
X002590Y007771D01*
X002538Y007771D01*
X002486Y007720D01*
X002486Y007668D01*
X002486Y007720D02*
X002434Y007771D01*
X002383Y007771D01*
X002331Y007720D01*
X002331Y007616D01*
X002383Y007564D01*
X002331Y007309D02*
X002641Y007309D01*
X002641Y007412D02*
X002641Y007205D01*
X002641Y007053D02*
X002538Y006950D01*
X002538Y007001D02*
X002538Y006846D01*
X002641Y006846D02*
X002331Y006846D01*
X002331Y007001D01*
X002383Y007053D01*
X002486Y007053D01*
X002538Y007001D01*
X002434Y007205D02*
X002331Y007309D01*
X001941Y008056D02*
X008691Y008056D01*
X008691Y015556D01*
X001941Y015556D01*
X001941Y008056D01*
X005747Y010162D02*
X005747Y010269D01*
X005747Y010216D02*
X006014Y010216D01*
X006067Y010162D01*
X006067Y010109D01*
X006014Y010056D01*
X006014Y010424D02*
X005801Y010637D01*
X006014Y010637D01*
X006067Y010584D01*
X006067Y010477D01*
X006014Y010424D01*
X005801Y010424D01*
X005747Y010477D01*
X005747Y010584D01*
X005801Y010637D01*
X005801Y010792D02*
X005747Y010846D01*
X005747Y010952D01*
X005801Y011006D01*
X006014Y010792D01*
X006067Y010846D01*
X006067Y010952D01*
X006014Y011006D01*
X005801Y011006D01*
X005907Y011161D02*
X005907Y011374D01*
X005801Y011529D02*
X005747Y011582D01*
X005747Y011689D01*
X005801Y011742D01*
X006014Y011529D01*
X006067Y011582D01*
X006067Y011689D01*
X006014Y011742D01*
X005801Y011742D01*
X005801Y011897D02*
X005747Y011951D01*
X005747Y012057D01*
X005801Y012111D01*
X006014Y011897D01*
X006067Y011951D01*
X006067Y012057D01*
X006014Y012111D01*
X005801Y012111D01*
X005907Y012265D02*
X005907Y012426D01*
X005961Y012479D01*
X006014Y012479D01*
X006067Y012426D01*
X006067Y012319D01*
X006014Y012265D01*
X005907Y012265D01*
X005801Y012372D01*
X005747Y012479D01*
X005747Y012634D02*
X005907Y012634D01*
X005854Y012741D01*
X005854Y012794D01*
X005907Y012847D01*
X006014Y012847D01*
X006067Y012794D01*
X006067Y012687D01*
X006014Y012634D01*
X005747Y012634D02*
X005747Y012847D01*
X005747Y013002D02*
X006067Y013216D01*
X005747Y013216D01*
X005747Y013370D02*
X006067Y013370D01*
X006067Y013584D01*
X006067Y013002D02*
X005747Y013002D01*
X005801Y011897D02*
X006014Y011897D01*
X006014Y011529D02*
X005801Y011529D01*
X005801Y010792D02*
X006014Y010792D01*
X008781Y011616D02*
X009061Y011897D01*
X009061Y011616D01*
X008991Y011546D01*
X008851Y011546D01*
X008781Y011616D01*
X008781Y011897D01*
X008851Y011967D01*
X008991Y011967D01*
X009061Y011897D01*
X009242Y011616D02*
X009312Y011616D01*
X009312Y011546D01*
X009242Y011546D01*
X009242Y011616D01*
X009472Y011616D02*
X009752Y011897D01*
X009752Y011616D01*
X009682Y011546D01*
X009542Y011546D01*
X009472Y011616D01*
X009472Y011897D01*
X009542Y011967D01*
X009682Y011967D01*
X009752Y011897D01*
X009932Y011827D02*
X010072Y011967D01*
X010072Y011546D01*
X009932Y011546D02*
X010212Y011546D01*
X010392Y011616D02*
X010392Y011827D01*
X010392Y011616D02*
X010463Y011546D01*
X010673Y011546D01*
X010673Y011827D01*
X010853Y011756D02*
X010993Y011756D01*
X010853Y011546D02*
X010853Y011967D01*
X011133Y011967D01*
X011191Y012181D02*
X011191Y011431D01*
X011191Y009056D01*
X031691Y009056D01*
X031691Y014556D01*
X011191Y014556D01*
X011191Y012181D01*
X010791Y012556D02*
X010791Y013056D01*
X010789Y013084D01*
X010783Y013112D01*
X010773Y013139D01*
X010759Y013164D01*
X010742Y013187D01*
X010722Y013207D01*
X010699Y013224D01*
X010674Y013238D01*
X010647Y013248D01*
X010619Y013254D01*
X010591Y013256D01*
X009291Y013256D01*
X009263Y013254D01*
X009235Y013248D01*
X009208Y013238D01*
X009183Y013224D01*
X009160Y013207D01*
X009140Y013187D01*
X009123Y013164D01*
X009109Y013139D01*
X009099Y013112D01*
X009093Y013084D01*
X009091Y013056D01*
X009091Y012556D01*
X009093Y012528D01*
X009099Y012500D01*
X009109Y012473D01*
X009123Y012448D01*
X009140Y012425D01*
X009160Y012405D01*
X009183Y012388D01*
X009208Y012374D01*
X009235Y012364D01*
X009263Y012358D01*
X009291Y012356D01*
X010591Y012356D01*
X010619Y012358D01*
X010647Y012364D01*
X010674Y012374D01*
X010699Y012388D01*
X010722Y012405D01*
X010742Y012425D01*
X010759Y012448D01*
X010773Y012473D01*
X010783Y012500D01*
X010789Y012528D01*
X010791Y012556D01*
X010071Y012506D02*
X010071Y013106D01*
X009821Y013106D02*
X009821Y012506D01*
X009891Y013806D02*
X009991Y013806D01*
X009851Y014186D02*
X009711Y014186D01*
X009641Y014256D01*
X009641Y014396D02*
X009781Y014467D01*
X009851Y014467D01*
X009921Y014396D01*
X009921Y014256D01*
X009851Y014186D01*
X010102Y014256D02*
X010382Y014537D01*
X010382Y014256D01*
X010312Y014186D01*
X010172Y014186D01*
X010102Y014256D01*
X010102Y014537D01*
X010172Y014607D01*
X010312Y014607D01*
X010382Y014537D01*
X009921Y014607D02*
X009641Y014607D01*
X009641Y014396D01*
X009891Y015056D02*
X009991Y015056D01*
X010941Y015806D02*
X011191Y015556D01*
X011691Y015556D01*
X011941Y015806D01*
X012191Y015556D01*
X012691Y015556D01*
X012941Y015806D01*
X013191Y015556D01*
X013691Y015556D01*
X013941Y015806D01*
X014191Y015556D01*
X014691Y015556D01*
X014941Y015806D01*
X015191Y015556D01*
X015691Y015556D01*
X015941Y015806D01*
X016191Y015556D01*
X016691Y015556D01*
X016941Y015806D01*
X017191Y015556D01*
X017691Y015556D01*
X017941Y015806D01*
X018191Y015556D01*
X018691Y015556D01*
X018941Y015806D01*
X018941Y016306D01*
X018691Y016556D01*
X018191Y016556D01*
X017941Y016306D01*
X017691Y016556D01*
X017191Y016556D01*
X016941Y016306D01*
X016691Y016556D01*
X016191Y016556D01*
X015941Y016306D01*
X015691Y016556D01*
X015191Y016556D01*
X014941Y016306D01*
X014691Y016556D01*
X014191Y016556D01*
X013941Y016306D01*
X013691Y016556D01*
X013191Y016556D01*
X012941Y016306D01*
X012691Y016556D01*
X012191Y016556D01*
X011941Y016306D01*
X011691Y016556D01*
X011191Y016556D01*
X010941Y016306D01*
X010941Y015806D01*
X011124Y016513D02*
X011124Y017616D01*
X010996Y017616D01*
X011380Y017172D02*
X011380Y016751D01*
X011660Y016751D01*
X011840Y016751D02*
X012121Y017172D01*
X012301Y017032D02*
X012441Y017172D01*
X012441Y016751D01*
X012301Y016751D02*
X012581Y016751D01*
X012121Y016751D02*
X011840Y017172D01*
X011660Y017172D02*
X011380Y017172D01*
X011380Y016961D02*
X011520Y016961D01*
X011124Y016513D02*
X009313Y016513D01*
X009435Y016854D02*
X009715Y016854D01*
X009895Y016854D02*
X010175Y016854D01*
X010035Y016854D02*
X010035Y017274D01*
X009895Y017134D01*
X009435Y017274D02*
X009435Y016854D01*
X008693Y016513D02*
X008565Y016513D01*
X008565Y017616D01*
X010376Y017616D01*
X010151Y017965D02*
X009731Y017965D01*
X009731Y018175D01*
X009801Y018245D01*
X009941Y018245D01*
X010011Y018175D01*
X010011Y017965D01*
X010011Y018105D02*
X010151Y018245D01*
X010081Y018426D02*
X010151Y018496D01*
X010151Y018636D01*
X010081Y018706D01*
X010011Y018706D01*
X009941Y018636D01*
X009941Y018496D01*
X009871Y018426D01*
X009801Y018426D01*
X009731Y018496D01*
X009731Y018636D01*
X009801Y018706D01*
X009731Y018886D02*
X009731Y019166D01*
X009731Y019026D02*
X010151Y019026D01*
X010191Y019306D02*
X009691Y019306D01*
X009441Y019556D01*
X009191Y019306D01*
X008691Y019306D01*
X008441Y019556D01*
X008441Y021556D01*
X008691Y021806D01*
X009191Y021806D01*
X009441Y021556D01*
X009691Y021806D01*
X010191Y021806D01*
X010441Y021556D01*
X010691Y021806D01*
X011191Y021806D01*
X011441Y021556D01*
X011691Y021806D01*
X012191Y021806D01*
X012441Y021556D01*
X012441Y020056D01*
X012691Y020306D01*
X013191Y020306D01*
X013441Y020056D01*
X013441Y019556D01*
X013191Y019306D01*
X012691Y019306D01*
X012441Y019556D01*
X012441Y020056D01*
X012441Y019556D02*
X012191Y019306D01*
X011691Y019306D01*
X011441Y019556D01*
X011191Y019306D01*
X010691Y019306D01*
X010441Y019556D01*
X010191Y019306D01*
X010691Y019056D02*
X011191Y019056D01*
X010941Y018806D01*
X010691Y019056D01*
X010731Y018666D02*
X011151Y018386D01*
X011151Y018206D02*
X011011Y018066D01*
X011011Y018136D02*
X011011Y017926D01*
X011151Y017926D02*
X010731Y017926D01*
X010731Y018136D01*
X010801Y018206D01*
X010941Y018206D01*
X011011Y018136D01*
X010731Y018386D02*
X011151Y018666D01*
X011691Y018806D02*
X011941Y019056D01*
X012191Y018806D01*
X011691Y018806D01*
X011731Y018666D02*
X012151Y018386D01*
X012151Y018666D02*
X011731Y018386D01*
X011731Y018206D02*
X011731Y017926D01*
X011731Y018066D02*
X012151Y018066D01*
X012701Y017995D02*
X012981Y017995D01*
X013121Y018135D01*
X012981Y018275D01*
X012701Y018275D01*
X012701Y018456D02*
X012701Y018666D01*
X012771Y018736D01*
X013051Y018736D01*
X013121Y018666D01*
X013121Y018456D01*
X012701Y018456D01*
X012701Y018916D02*
X012701Y019126D01*
X012771Y019196D01*
X013051Y019196D01*
X013121Y019126D01*
X013121Y018916D01*
X012701Y018916D01*
X013441Y018556D02*
X017441Y018556D01*
X017441Y019306D01*
X017491Y019456D02*
X017491Y018156D01*
X017493Y018128D01*
X017499Y018100D01*
X017509Y018073D01*
X017523Y018048D01*
X017540Y018025D01*
X017560Y018005D01*
X017583Y017988D01*
X017608Y017974D01*
X017635Y017964D01*
X017663Y017958D01*
X017691Y017956D01*
X018191Y017956D01*
X018187Y017817D02*
X018117Y017747D01*
X018187Y017817D02*
X018327Y017817D01*
X018397Y017747D01*
X018397Y017677D01*
X018327Y017606D01*
X018397Y017536D01*
X018397Y017466D01*
X018327Y017396D01*
X018187Y017396D01*
X018117Y017466D01*
X017936Y017466D02*
X017866Y017396D01*
X017726Y017396D01*
X017656Y017466D01*
X017656Y017747D01*
X017726Y017817D01*
X017866Y017817D01*
X017936Y017747D01*
X018257Y017606D02*
X018327Y017606D01*
X018409Y017167D02*
X018409Y016846D01*
X018303Y016846D02*
X018516Y016846D01*
X018671Y016846D02*
X018885Y016846D01*
X018778Y016846D02*
X018778Y017167D01*
X018671Y017060D01*
X018409Y017167D02*
X018303Y017060D01*
X018148Y017006D02*
X017934Y017006D01*
X017780Y017060D02*
X017566Y016846D01*
X017780Y016846D01*
X017780Y017060D02*
X017780Y017113D01*
X017726Y017167D01*
X017619Y017167D01*
X017566Y017113D01*
X017305Y017167D02*
X017305Y016846D01*
X017411Y016846D02*
X017198Y016846D01*
X017198Y017060D02*
X017305Y017167D01*
X017043Y017006D02*
X016829Y017006D01*
X016675Y017113D02*
X016461Y016900D01*
X016461Y016846D01*
X016306Y016900D02*
X016253Y016846D01*
X016146Y016846D01*
X016093Y016900D01*
X016306Y017113D01*
X016306Y016900D01*
X016093Y016900D02*
X016093Y017113D01*
X016146Y017167D01*
X016253Y017167D01*
X016306Y017113D01*
X016461Y017167D02*
X016675Y017167D01*
X016675Y017113D01*
X015938Y017113D02*
X015938Y016900D01*
X015885Y016846D01*
X015778Y016846D01*
X015725Y016900D01*
X015938Y017113D01*
X015885Y017167D01*
X015778Y017167D01*
X015725Y017113D01*
X015725Y016900D01*
X015570Y016846D02*
X015356Y016846D01*
X015570Y017060D01*
X015570Y017113D01*
X015516Y017167D01*
X015410Y017167D01*
X015356Y017113D01*
X013441Y018556D02*
X013441Y019556D01*
X013441Y020056D02*
X013441Y020556D01*
X017441Y020556D01*
X017441Y019806D01*
X017410Y019804D01*
X017379Y019798D01*
X017349Y019788D01*
X017321Y019775D01*
X017294Y019758D01*
X017270Y019738D01*
X017248Y019715D01*
X017230Y019690D01*
X017215Y019662D01*
X017203Y019633D01*
X017195Y019603D01*
X017191Y019572D01*
X017191Y019540D01*
X017195Y019509D01*
X017203Y019479D01*
X017215Y019450D01*
X017230Y019422D01*
X017248Y019397D01*
X017270Y019374D01*
X017294Y019354D01*
X017321Y019337D01*
X017349Y019324D01*
X017379Y019314D01*
X017410Y019308D01*
X017441Y019306D01*
X017491Y019456D02*
X017493Y019484D01*
X017499Y019512D01*
X017509Y019539D01*
X017523Y019564D01*
X017540Y019587D01*
X017560Y019607D01*
X017583Y019624D01*
X017608Y019638D01*
X017635Y019648D01*
X017663Y019654D01*
X017691Y019656D01*
X018191Y019656D01*
X018219Y019654D01*
X018247Y019648D01*
X018274Y019638D01*
X018299Y019624D01*
X018322Y019607D01*
X018342Y019587D01*
X018359Y019564D01*
X018373Y019539D01*
X018383Y019512D01*
X018389Y019484D01*
X018391Y019456D01*
X018391Y018156D01*
X018389Y018128D01*
X018383Y018100D01*
X018373Y018073D01*
X018359Y018048D01*
X018342Y018025D01*
X018322Y018005D01*
X018299Y017988D01*
X018274Y017974D01*
X018247Y017964D01*
X018219Y017958D01*
X018191Y017956D01*
X018981Y018306D02*
X019261Y018306D01*
X019121Y018166D02*
X019121Y018447D01*
X019441Y018556D02*
X019691Y018806D01*
X019441Y019056D01*
X019441Y019556D01*
X019691Y019806D01*
X020191Y019806D01*
X020441Y019556D01*
X020441Y019056D01*
X020191Y018806D01*
X020441Y018556D01*
X020441Y018056D01*
X020191Y017806D01*
X019691Y017806D01*
X019441Y018056D01*
X019441Y018556D01*
X020441Y018556D02*
X020441Y019056D01*
X020441Y019556D02*
X020441Y021606D01*
X021191Y021606D01*
X021191Y021256D01*
X021791Y021256D01*
X021791Y021606D01*
X026691Y021606D01*
X026691Y017506D01*
X021791Y017506D01*
X021791Y017856D01*
X021191Y017856D01*
X021191Y017506D01*
X020441Y017506D01*
X020441Y018056D01*
X020576Y017986D02*
X020576Y017846D01*
X020576Y017916D02*
X020926Y017916D01*
X020996Y017846D01*
X020996Y017776D01*
X020926Y017706D01*
X020996Y018166D02*
X020716Y018446D01*
X020646Y018446D01*
X020576Y018376D01*
X020576Y018236D01*
X020646Y018166D01*
X020996Y018166D02*
X020996Y018446D01*
X021816Y018406D02*
X021816Y018506D01*
X022741Y018564D02*
X022896Y018564D01*
X022844Y018668D01*
X022844Y018720D01*
X022896Y018771D01*
X023000Y018771D01*
X023051Y018720D01*
X023051Y018616D01*
X023000Y018564D01*
X023051Y018412D02*
X023051Y018205D01*
X023051Y018309D02*
X022741Y018309D01*
X022844Y018205D01*
X022844Y018053D02*
X023051Y018053D01*
X022896Y018053D02*
X022896Y017846D01*
X022844Y017846D02*
X022741Y017950D01*
X022844Y018053D01*
X022844Y017846D02*
X023051Y017846D01*
X023191Y017756D02*
X026441Y017756D01*
X026441Y021356D01*
X023191Y021356D01*
X023191Y017756D01*
X023451Y017237D02*
X023451Y016816D01*
X023731Y016816D01*
X023912Y016816D02*
X024192Y017237D01*
X024372Y017167D02*
X024442Y017237D01*
X024582Y017237D01*
X024652Y017167D01*
X024652Y017097D01*
X024372Y016816D01*
X024652Y016816D01*
X024691Y016556D02*
X025191Y016556D01*
X025441Y016306D01*
X025691Y016556D01*
X026191Y016556D01*
X026441Y016306D01*
X026691Y016556D01*
X027191Y016556D01*
X027441Y016306D01*
X027691Y016556D01*
X028191Y016556D01*
X028441Y016306D01*
X028691Y016556D01*
X029191Y016556D01*
X029441Y016306D01*
X029691Y016556D01*
X030191Y016556D01*
X030441Y016306D01*
X030441Y015806D01*
X030191Y015556D01*
X029691Y015556D01*
X029441Y015806D01*
X029191Y015556D01*
X028691Y015556D01*
X028441Y015806D01*
X028191Y015556D01*
X027691Y015556D01*
X027441Y015806D01*
X027191Y015556D01*
X026691Y015556D01*
X026441Y015806D01*
X026191Y015556D01*
X025691Y015556D01*
X025441Y015806D01*
X025191Y015556D01*
X024691Y015556D01*
X024441Y015806D01*
X024191Y015556D01*
X023691Y015556D01*
X023441Y015806D01*
X023441Y016306D01*
X023691Y016556D01*
X024191Y016556D01*
X024441Y016306D01*
X024691Y016556D01*
X024192Y016816D02*
X023912Y017237D01*
X023731Y017237D02*
X023451Y017237D01*
X023451Y017026D02*
X023591Y017026D01*
X024531Y017796D02*
X025151Y017796D01*
X025151Y018210D01*
X025151Y018441D02*
X024531Y018441D01*
X024738Y018648D01*
X024531Y018854D01*
X025151Y018854D01*
X025151Y019085D02*
X024738Y019499D01*
X024634Y019499D01*
X024531Y019396D01*
X024531Y019189D01*
X024634Y019085D01*
X025151Y019085D02*
X025151Y019499D01*
X025048Y019730D02*
X025151Y019833D01*
X025151Y020040D01*
X025048Y020144D01*
X024634Y020144D01*
X024531Y020040D01*
X024531Y019833D01*
X024634Y019730D01*
X024738Y019730D01*
X024841Y019833D01*
X024841Y020144D01*
X024634Y020374D02*
X024531Y020478D01*
X024531Y020685D01*
X024634Y020788D01*
X024738Y020788D01*
X024841Y020685D01*
X024944Y020788D01*
X025048Y020788D01*
X025151Y020685D01*
X025151Y020478D01*
X025048Y020374D01*
X024841Y020581D02*
X024841Y020685D01*
X025048Y021019D02*
X025151Y021019D01*
X025048Y021019D02*
X024634Y021433D01*
X024531Y021433D01*
X024531Y021019D01*
X024151Y020084D02*
X024151Y019671D01*
X023738Y020084D01*
X023634Y020084D01*
X023531Y019981D01*
X023531Y019774D01*
X023634Y019671D01*
X023634Y019440D02*
X023531Y019336D01*
X023531Y019129D01*
X023634Y019026D01*
X024048Y019026D01*
X024151Y019129D01*
X024151Y019336D01*
X024048Y019440D01*
X023155Y018924D02*
X023051Y019027D01*
X023051Y018975D01*
X023000Y018975D01*
X023000Y019027D01*
X023051Y019027D01*
X023051Y019163D02*
X022844Y019370D01*
X022793Y019370D01*
X022741Y019318D01*
X022741Y019215D01*
X022793Y019163D01*
X023051Y019163D02*
X023051Y019370D01*
X023051Y019522D02*
X022844Y019522D01*
X022844Y019574D01*
X022896Y019625D01*
X022844Y019677D01*
X022896Y019729D01*
X023051Y019729D01*
X023051Y019625D02*
X022896Y019625D01*
X022844Y019881D02*
X022844Y019933D01*
X022896Y019985D01*
X022844Y020036D01*
X022896Y020088D01*
X023051Y020088D01*
X023051Y019985D02*
X022896Y019985D01*
X022844Y019881D02*
X023051Y019881D01*
X021225Y019556D02*
X021227Y019610D01*
X021235Y019663D01*
X021247Y019715D01*
X021264Y019767D01*
X021285Y019816D01*
X021311Y019863D01*
X021341Y019908D01*
X021375Y019949D01*
X021413Y019988D01*
X021454Y020023D01*
X021498Y020054D01*
X021544Y020081D01*
X021593Y020103D01*
X021644Y020121D01*
X021696Y020135D01*
X021749Y020143D01*
X021803Y020147D01*
X021856Y020146D01*
X021910Y020140D01*
X021962Y020129D01*
X022014Y020113D01*
X022064Y020093D01*
X022111Y020068D01*
X022157Y020039D01*
X022199Y020006D01*
X022239Y019969D01*
X022274Y019929D01*
X022306Y019886D01*
X022334Y019840D01*
X022358Y019791D01*
X022377Y019741D01*
X022392Y019689D01*
X022401Y019636D01*
X022406Y019583D01*
X022406Y019529D01*
X022401Y019476D01*
X022392Y019423D01*
X022377Y019371D01*
X022358Y019321D01*
X022334Y019272D01*
X022306Y019226D01*
X022274Y019183D01*
X022239Y019143D01*
X022199Y019106D01*
X022157Y019073D01*
X022112Y019044D01*
X022064Y019019D01*
X022014Y018999D01*
X021962Y018983D01*
X021910Y018972D01*
X021856Y018966D01*
X021803Y018965D01*
X021749Y018969D01*
X021696Y018977D01*
X021644Y018991D01*
X021593Y019009D01*
X021544Y019031D01*
X021498Y019058D01*
X021454Y019089D01*
X021413Y019124D01*
X021375Y019163D01*
X021341Y019204D01*
X021311Y019249D01*
X021285Y019296D01*
X021264Y019345D01*
X021247Y019397D01*
X021235Y019449D01*
X021227Y019502D01*
X021225Y019556D01*
X021081Y019556D02*
X021084Y019621D01*
X021093Y019685D01*
X021107Y019748D01*
X021128Y019809D01*
X021153Y019868D01*
X021184Y019925D01*
X021220Y019979D01*
X021261Y020029D01*
X021306Y020075D01*
X021356Y020117D01*
X021408Y020154D01*
X021464Y020186D01*
X021523Y020213D01*
X021584Y020235D01*
X021647Y020251D01*
X021710Y020261D01*
X021775Y020266D01*
X021839Y020264D01*
X021904Y020257D01*
X021967Y020244D01*
X022029Y020225D01*
X022089Y020201D01*
X022146Y020171D01*
X022200Y020136D01*
X022251Y020096D01*
X022299Y020052D01*
X022342Y020004D01*
X022380Y019952D01*
X022414Y019897D01*
X022442Y019839D01*
X022465Y019778D01*
X022483Y019716D01*
X022494Y019653D01*
X022500Y019588D01*
X022500Y019524D01*
X022494Y019459D01*
X022483Y019396D01*
X022465Y019334D01*
X022442Y019273D01*
X022414Y019215D01*
X022380Y019160D01*
X022342Y019108D01*
X022299Y019060D01*
X022251Y019016D01*
X022200Y018976D01*
X022146Y018941D01*
X022089Y018911D01*
X022029Y018887D01*
X021967Y018868D01*
X021904Y018855D01*
X021839Y018848D01*
X021775Y018846D01*
X021710Y018851D01*
X021647Y018861D01*
X021584Y018877D01*
X021523Y018899D01*
X021464Y018926D01*
X021408Y018958D01*
X021356Y018995D01*
X021306Y019037D01*
X021261Y019083D01*
X021220Y019133D01*
X021184Y019187D01*
X021153Y019244D01*
X021128Y019303D01*
X021107Y019364D01*
X021093Y019427D01*
X021084Y019491D01*
X021081Y019556D01*
X020666Y019556D02*
X020671Y019661D01*
X020685Y019764D01*
X020709Y019866D01*
X020741Y019966D01*
X020783Y020062D01*
X020833Y020154D01*
X020892Y020240D01*
X020958Y020322D01*
X021031Y020396D01*
X021111Y020464D01*
X021196Y020525D01*
X021287Y020577D01*
X021382Y020621D01*
X021481Y020656D01*
X021582Y020682D01*
X021685Y020699D01*
X021790Y020706D01*
X021894Y020703D01*
X021998Y020691D01*
X022101Y020670D01*
X022201Y020640D01*
X022298Y020600D01*
X022391Y020552D01*
X022479Y020496D01*
X022562Y020431D01*
X022638Y020360D01*
X022708Y020282D01*
X022770Y020198D01*
X022825Y020108D01*
X022871Y020014D01*
X022908Y019916D01*
X022936Y019816D01*
X022955Y019713D01*
X022965Y019608D01*
X022965Y019504D01*
X022955Y019399D01*
X022936Y019296D01*
X022908Y019196D01*
X022871Y019098D01*
X022825Y019004D01*
X022770Y018914D01*
X022708Y018830D01*
X022638Y018752D01*
X022562Y018681D01*
X022479Y018616D01*
X022391Y018560D01*
X022298Y018512D01*
X022201Y018472D01*
X022101Y018442D01*
X021998Y018421D01*
X021894Y018409D01*
X021790Y018406D01*
X021685Y018413D01*
X021582Y018430D01*
X021481Y018456D01*
X021382Y018491D01*
X021287Y018535D01*
X021196Y018587D01*
X021111Y018648D01*
X021031Y018716D01*
X020958Y018790D01*
X020892Y018872D01*
X020833Y018958D01*
X020783Y019050D01*
X020741Y019146D01*
X020709Y019246D01*
X020685Y019348D01*
X020671Y019451D01*
X020666Y019556D01*
X021816Y020606D02*
X021816Y020706D01*
X022741Y018771D02*
X022741Y018564D01*
X023531Y018596D02*
X023531Y018803D01*
X023531Y018700D02*
X024151Y018700D01*
X024151Y018803D02*
X024151Y018596D01*
X022341Y017331D02*
X020041Y017331D01*
X020041Y017131D02*
X022341Y017131D01*
X022393Y017129D01*
X022445Y017123D01*
X022497Y017113D01*
X022547Y017100D01*
X022597Y017083D01*
X022645Y017062D01*
X022691Y017037D01*
X022735Y017009D01*
X022777Y016978D01*
X022817Y016944D01*
X022854Y016907D01*
X022888Y016867D01*
X022919Y016825D01*
X022947Y016781D01*
X022972Y016735D01*
X022993Y016687D01*
X023010Y016637D01*
X023023Y016587D01*
X023033Y016535D01*
X023039Y016483D01*
X023041Y016431D01*
X023039Y016379D01*
X023033Y016327D01*
X023023Y016275D01*
X023010Y016225D01*
X022993Y016175D01*
X022972Y016127D01*
X022947Y016081D01*
X022919Y016037D01*
X022888Y015995D01*
X022854Y015955D01*
X022817Y015918D01*
X022777Y015884D01*
X022735Y015853D01*
X022691Y015825D01*
X022645Y015800D01*
X022597Y015779D01*
X022547Y015762D01*
X022497Y015749D01*
X022445Y015739D01*
X022393Y015733D01*
X022341Y015731D01*
X020041Y015731D01*
X020041Y015531D02*
X022341Y015531D01*
X021441Y016081D02*
X021441Y016431D01*
X021691Y016431D01*
X021441Y016431D02*
X021441Y016781D01*
X021291Y016781D02*
X021291Y016081D01*
X021091Y016081D01*
X021091Y016781D01*
X021291Y016781D01*
X020941Y016781D02*
X020941Y016431D01*
X020691Y016431D01*
X020941Y016431D02*
X020941Y016081D01*
X020041Y015731D02*
X019989Y015733D01*
X019937Y015739D01*
X019885Y015749D01*
X019835Y015762D01*
X019785Y015779D01*
X019737Y015800D01*
X019691Y015825D01*
X019647Y015853D01*
X019605Y015884D01*
X019565Y015918D01*
X019528Y015955D01*
X019494Y015995D01*
X019463Y016037D01*
X019435Y016081D01*
X019410Y016127D01*
X019389Y016175D01*
X019372Y016225D01*
X019359Y016275D01*
X019349Y016327D01*
X019343Y016379D01*
X019341Y016431D01*
X019343Y016483D01*
X019349Y016535D01*
X019359Y016587D01*
X019372Y016637D01*
X019389Y016687D01*
X019410Y016735D01*
X019435Y016781D01*
X019463Y016825D01*
X019494Y016867D01*
X019528Y016907D01*
X019565Y016944D01*
X019605Y016978D01*
X019647Y017009D01*
X019691Y017037D01*
X019737Y017062D01*
X019785Y017083D01*
X019835Y017100D01*
X019885Y017113D01*
X019937Y017123D01*
X019989Y017129D01*
X020041Y017131D01*
X018241Y018686D02*
X017641Y018686D01*
X017641Y018936D02*
X018241Y018936D01*
X016921Y018981D02*
X016301Y018981D01*
X016301Y018878D02*
X016301Y019084D01*
X016404Y019307D02*
X016818Y019307D01*
X016921Y019411D01*
X016921Y019617D01*
X016818Y019721D01*
X016921Y019952D02*
X016921Y020365D01*
X016921Y020159D02*
X016301Y020159D01*
X016508Y019952D01*
X016404Y019721D02*
X016301Y019617D01*
X016301Y019411D01*
X016404Y019307D01*
X016921Y019084D02*
X016921Y018878D01*
X013145Y020782D02*
X012731Y020782D01*
X012938Y020988D02*
X012938Y020575D01*
X009151Y019096D02*
X009151Y018886D01*
X008731Y018886D01*
X008731Y019096D01*
X008801Y019166D01*
X009081Y019166D01*
X009151Y019096D01*
X009151Y018706D02*
X008731Y018706D01*
X008731Y018426D02*
X009151Y018706D01*
X009151Y018426D02*
X008731Y018426D01*
X008801Y018245D02*
X008731Y018175D01*
X008731Y018035D01*
X008801Y017965D01*
X009081Y017965D01*
X009151Y018035D01*
X009151Y018175D01*
X009081Y018245D01*
X008941Y018245D01*
X008941Y018105D01*
X005441Y016606D02*
X005441Y016006D01*
X005439Y015986D01*
X005433Y015968D01*
X005424Y015950D01*
X005412Y015935D01*
X005397Y015923D01*
X005379Y015914D01*
X005361Y015908D01*
X005341Y015906D01*
X005191Y015906D01*
X005141Y015956D01*
X003741Y015956D01*
X003691Y015906D01*
X003541Y015906D01*
X003521Y015908D01*
X003503Y015914D01*
X003485Y015923D01*
X003470Y015935D01*
X003458Y015950D01*
X003449Y015968D01*
X003443Y015986D01*
X003441Y016006D01*
X003441Y016606D01*
X003443Y016626D01*
X003449Y016644D01*
X003458Y016662D01*
X003470Y016677D01*
X003485Y016689D01*
X003503Y016698D01*
X003521Y016704D01*
X003541Y016706D01*
X003691Y016706D01*
X003741Y016656D01*
X005141Y016656D01*
X005191Y016706D01*
X005341Y016706D01*
X005361Y016704D01*
X005379Y016698D01*
X005397Y016689D01*
X005412Y016677D01*
X005424Y016662D01*
X005433Y016644D01*
X005439Y016626D01*
X005441Y016606D01*
X004766Y016415D02*
X004559Y016208D01*
X004611Y016156D01*
X004715Y016156D01*
X004766Y016208D01*
X004766Y016415D01*
X004715Y016467D01*
X004611Y016467D01*
X004559Y016415D01*
X004559Y016208D01*
X004407Y016415D02*
X004407Y016467D01*
X004200Y016467D01*
X004048Y016415D02*
X003996Y016467D01*
X003893Y016467D01*
X003841Y016415D01*
X004048Y016415D02*
X004048Y016363D01*
X003841Y016156D01*
X004048Y016156D01*
X004200Y016156D02*
X004200Y016208D01*
X004407Y016415D01*
X002797Y015731D02*
X002590Y015731D01*
X002694Y015731D02*
X002694Y016042D01*
X002590Y015938D01*
X002438Y015886D02*
X002386Y015835D01*
X002231Y015835D01*
X002335Y015835D02*
X002438Y015731D01*
X002438Y015886D02*
X002438Y015990D01*
X002386Y016042D01*
X002231Y016042D01*
X002231Y015731D01*
X004441Y019156D02*
X004441Y019256D01*
X003850Y020306D02*
X003852Y020360D01*
X003860Y020413D01*
X003872Y020465D01*
X003889Y020517D01*
X003910Y020566D01*
X003936Y020613D01*
X003966Y020658D01*
X004000Y020699D01*
X004038Y020738D01*
X004079Y020773D01*
X004123Y020804D01*
X004169Y020831D01*
X004218Y020853D01*
X004269Y020871D01*
X004321Y020885D01*
X004374Y020893D01*
X004428Y020897D01*
X004481Y020896D01*
X004535Y020890D01*
X004587Y020879D01*
X004639Y020863D01*
X004689Y020843D01*
X004736Y020818D01*
X004782Y020789D01*
X004824Y020756D01*
X004864Y020719D01*
X004899Y020679D01*
X004931Y020636D01*
X004959Y020590D01*
X004983Y020541D01*
X005002Y020491D01*
X005017Y020439D01*
X005026Y020386D01*
X005031Y020333D01*
X005031Y020279D01*
X005026Y020226D01*
X005017Y020173D01*
X005002Y020121D01*
X004983Y020071D01*
X004959Y020022D01*
X004931Y019976D01*
X004899Y019933D01*
X004864Y019893D01*
X004824Y019856D01*
X004782Y019823D01*
X004737Y019794D01*
X004689Y019769D01*
X004639Y019749D01*
X004587Y019733D01*
X004535Y019722D01*
X004481Y019716D01*
X004428Y019715D01*
X004374Y019719D01*
X004321Y019727D01*
X004269Y019741D01*
X004218Y019759D01*
X004169Y019781D01*
X004123Y019808D01*
X004079Y019839D01*
X004038Y019874D01*
X004000Y019913D01*
X003966Y019954D01*
X003936Y019999D01*
X003910Y020046D01*
X003889Y020095D01*
X003872Y020147D01*
X003860Y020199D01*
X003852Y020252D01*
X003850Y020306D01*
X003291Y020306D02*
X003296Y020411D01*
X003310Y020514D01*
X003334Y020616D01*
X003366Y020716D01*
X003408Y020812D01*
X003458Y020904D01*
X003517Y020990D01*
X003583Y021072D01*
X003656Y021146D01*
X003736Y021214D01*
X003821Y021275D01*
X003912Y021327D01*
X004007Y021371D01*
X004106Y021406D01*
X004207Y021432D01*
X004310Y021449D01*
X004415Y021456D01*
X004519Y021453D01*
X004623Y021441D01*
X004726Y021420D01*
X004826Y021390D01*
X004923Y021350D01*
X005016Y021302D01*
X005104Y021246D01*
X005187Y021181D01*
X005263Y021110D01*
X005333Y021032D01*
X005395Y020948D01*
X005450Y020858D01*
X005496Y020764D01*
X005533Y020666D01*
X005561Y020566D01*
X005580Y020463D01*
X005590Y020358D01*
X005590Y020254D01*
X005580Y020149D01*
X005561Y020046D01*
X005533Y019946D01*
X005496Y019848D01*
X005450Y019754D01*
X005395Y019664D01*
X005333Y019580D01*
X005263Y019502D01*
X005187Y019431D01*
X005104Y019366D01*
X005016Y019310D01*
X004923Y019262D01*
X004826Y019222D01*
X004726Y019192D01*
X004623Y019171D01*
X004519Y019159D01*
X004415Y019156D01*
X004310Y019163D01*
X004207Y019180D01*
X004106Y019206D01*
X004007Y019241D01*
X003912Y019285D01*
X003821Y019337D01*
X003736Y019398D01*
X003656Y019466D01*
X003583Y019540D01*
X003517Y019622D01*
X003458Y019708D01*
X003408Y019800D01*
X003366Y019896D01*
X003334Y019996D01*
X003310Y020098D01*
X003296Y020201D01*
X003291Y020306D01*
X004441Y021356D02*
X004441Y021456D01*
X011516Y014102D02*
X011726Y014102D01*
X011796Y014032D01*
X011796Y013891D01*
X011726Y013821D01*
X011516Y013821D01*
X011516Y013681D02*
X011516Y014102D01*
X011656Y013821D02*
X011796Y013681D01*
X011977Y013751D02*
X012047Y013681D01*
X012187Y013681D01*
X012257Y013751D01*
X012257Y013821D01*
X012187Y013891D01*
X012117Y013891D01*
X012187Y013891D02*
X012257Y013962D01*
X012257Y014032D01*
X012187Y014102D01*
X012047Y014102D01*
X011977Y014032D01*
X012202Y013067D02*
X011992Y012856D01*
X012272Y012856D01*
X012202Y012646D02*
X012202Y013067D01*
X011811Y012997D02*
X011741Y013067D01*
X011601Y013067D01*
X011531Y012997D01*
X011531Y012716D01*
X011601Y012646D01*
X011741Y012646D01*
X011811Y012716D01*
X013566Y012106D02*
X013566Y011506D01*
X013568Y011486D01*
X013574Y011468D01*
X013583Y011450D01*
X013595Y011435D01*
X013610Y011423D01*
X013628Y011414D01*
X013646Y011408D01*
X013666Y011406D01*
X013816Y011406D01*
X013866Y011456D01*
X015266Y011456D01*
X015316Y011406D01*
X015466Y011406D01*
X015486Y011408D01*
X015504Y011414D01*
X015522Y011423D01*
X015537Y011435D01*
X015549Y011450D01*
X015558Y011468D01*
X015564Y011486D01*
X015566Y011506D01*
X015566Y012106D01*
X015564Y012126D01*
X015558Y012144D01*
X015549Y012162D01*
X015537Y012177D01*
X015522Y012189D01*
X015504Y012198D01*
X015486Y012204D01*
X015466Y012206D01*
X015316Y012206D01*
X015266Y012156D01*
X013866Y012156D01*
X013816Y012206D01*
X013666Y012206D01*
X013646Y012204D01*
X013628Y012198D01*
X013610Y012189D01*
X013595Y012177D01*
X013583Y012162D01*
X013574Y012144D01*
X013568Y012126D01*
X013566Y012106D01*
X014229Y011853D02*
X014332Y011957D01*
X014332Y011646D01*
X014229Y011646D02*
X014436Y011646D01*
X014588Y011698D02*
X014640Y011646D01*
X014743Y011646D01*
X014795Y011698D01*
X014795Y011905D01*
X014588Y011698D01*
X014588Y011905D01*
X014640Y011957D01*
X014743Y011957D01*
X014795Y011905D01*
X014947Y011957D02*
X014947Y011646D01*
X014947Y011750D02*
X015102Y011646D01*
X014947Y011750D02*
X015102Y011853D01*
X015043Y011257D02*
X015095Y011205D01*
X015095Y011101D01*
X015043Y011050D01*
X014888Y011050D01*
X014991Y011050D02*
X015095Y010946D01*
X015247Y010998D02*
X015299Y010946D01*
X015402Y010946D01*
X015454Y010998D01*
X015454Y011050D01*
X015402Y011101D01*
X015247Y011101D01*
X015247Y010998D01*
X015247Y011101D02*
X015351Y011205D01*
X015454Y011257D01*
X015043Y011257D02*
X014888Y011257D01*
X014888Y010946D01*
X012272Y010856D02*
X012272Y010716D01*
X012202Y010646D01*
X012062Y010646D01*
X011992Y010716D01*
X011992Y010856D02*
X012132Y010927D01*
X012202Y010927D01*
X012272Y010856D01*
X012272Y011067D02*
X011992Y011067D01*
X011992Y010856D01*
X011811Y010716D02*
X011741Y010646D01*
X011601Y010646D01*
X011531Y010716D01*
X011531Y010997D01*
X011601Y011067D01*
X011741Y011067D01*
X011811Y010997D01*
X010791Y011056D02*
X010791Y010556D01*
X010789Y010528D01*
X010783Y010500D01*
X010773Y010473D01*
X010759Y010448D01*
X010742Y010425D01*
X010722Y010405D01*
X010699Y010388D01*
X010674Y010374D01*
X010647Y010364D01*
X010619Y010358D01*
X010591Y010356D01*
X009291Y010356D01*
X009263Y010358D01*
X009235Y010364D01*
X009208Y010374D01*
X009183Y010388D01*
X009160Y010405D01*
X009140Y010425D01*
X009123Y010448D01*
X009109Y010473D01*
X009099Y010500D01*
X009093Y010528D01*
X009091Y010556D01*
X009091Y011056D01*
X009093Y011084D01*
X009099Y011112D01*
X009109Y011139D01*
X009123Y011164D01*
X009140Y011187D01*
X009160Y011207D01*
X009183Y011224D01*
X009208Y011238D01*
X009235Y011248D01*
X009263Y011254D01*
X009291Y011256D01*
X010591Y011256D01*
X010619Y011254D01*
X010647Y011248D01*
X010674Y011238D01*
X010699Y011224D01*
X010722Y011207D01*
X010742Y011187D01*
X010759Y011164D01*
X010773Y011139D01*
X010783Y011112D01*
X010789Y011084D01*
X010791Y011056D01*
X010071Y011106D02*
X010071Y010506D01*
X009821Y010506D02*
X009821Y011106D01*
X009891Y009806D02*
X009991Y009806D01*
X009921Y009357D02*
X009641Y009357D01*
X009641Y009146D01*
X009781Y009217D01*
X009851Y009217D01*
X009921Y009146D01*
X009921Y009006D01*
X009851Y008936D01*
X009711Y008936D01*
X009641Y009006D01*
X010102Y009006D02*
X010102Y009287D01*
X010172Y009357D01*
X010312Y009357D01*
X010382Y009287D01*
X010102Y009006D01*
X010172Y008936D01*
X010312Y008936D01*
X010382Y009006D01*
X010382Y009287D01*
X009991Y008556D02*
X009891Y008556D01*
X008326Y008606D02*
X008113Y008606D01*
X008113Y008446D02*
X008113Y008767D01*
X007958Y008767D02*
X007745Y008767D01*
X007851Y008767D02*
X007851Y008446D01*
X007590Y008446D02*
X007376Y008446D01*
X007376Y008767D01*
X007590Y008767D01*
X007483Y008606D02*
X007376Y008606D01*
X008326Y008767D02*
X008326Y008446D01*
X011516Y009681D02*
X011516Y010102D01*
X011726Y010102D01*
X011796Y010032D01*
X011796Y009891D01*
X011726Y009821D01*
X011516Y009821D01*
X011656Y009821D02*
X011796Y009681D01*
X011977Y009751D02*
X012047Y009681D01*
X012187Y009681D01*
X012257Y009751D01*
X012257Y010032D01*
X012187Y010102D01*
X012047Y010102D01*
X011977Y010032D01*
X011977Y009962D01*
X012047Y009891D01*
X012257Y009891D01*
X017983Y011336D02*
X017983Y012017D01*
X018324Y012017D01*
X018437Y011903D01*
X018437Y011677D01*
X018324Y011563D01*
X017983Y011563D01*
X018683Y011563D02*
X018796Y011677D01*
X019023Y011677D01*
X019137Y011563D01*
X019137Y011450D01*
X019023Y011336D01*
X018796Y011336D01*
X018683Y011450D01*
X018683Y011563D01*
X018796Y011677D02*
X018683Y011790D01*
X018683Y011903D01*
X018796Y012017D01*
X019023Y012017D01*
X019137Y011903D01*
X019137Y011790D01*
X019023Y011677D01*
X019383Y012017D02*
X019837Y011336D01*
X020083Y011450D02*
X020196Y011336D01*
X020423Y011336D01*
X020536Y011450D01*
X020536Y011563D01*
X020423Y011677D01*
X020309Y011677D01*
X020423Y011677D02*
X020536Y011790D01*
X020536Y011903D01*
X020423Y012017D01*
X020196Y012017D01*
X020083Y011903D01*
X019837Y012017D02*
X019383Y011336D01*
X020782Y011336D02*
X021236Y011790D01*
X021236Y011903D01*
X021123Y012017D01*
X020896Y012017D01*
X020782Y011903D01*
X020782Y011336D02*
X021236Y011336D01*
X021482Y011336D02*
X021482Y011790D01*
X021709Y012017D01*
X021936Y011790D01*
X021936Y011336D01*
X021936Y011677D02*
X021482Y011677D01*
X022182Y011677D02*
X022636Y011677D01*
X022882Y012017D02*
X023222Y012017D01*
X023335Y011903D01*
X023335Y011450D01*
X023222Y011336D01*
X022882Y011336D01*
X022882Y012017D01*
X023581Y011677D02*
X024035Y011677D01*
X024281Y011450D02*
X024281Y011903D01*
X024395Y012017D01*
X024621Y012017D01*
X024735Y011903D01*
X024281Y011450D01*
X024395Y011336D01*
X024621Y011336D01*
X024735Y011450D01*
X024735Y011903D01*
X023922Y012017D02*
X023922Y011336D01*
X023581Y011677D02*
X023922Y012017D01*
X022143Y013571D02*
X021862Y013571D01*
X022143Y013852D01*
X021862Y013852D01*
X021682Y013781D02*
X021402Y013781D01*
X021402Y013571D02*
X021402Y013992D01*
X021222Y013992D02*
X021222Y013571D01*
X020942Y013571D02*
X020942Y013992D01*
X021082Y013852D01*
X021222Y013992D01*
X021682Y013992D02*
X021682Y013571D01*
X020761Y013641D02*
X020691Y013571D01*
X020551Y013571D01*
X020481Y013641D01*
X020481Y013781D02*
X020621Y013852D01*
X020691Y013852D01*
X020761Y013781D01*
X020761Y013641D01*
X020481Y013781D02*
X020481Y013992D01*
X020761Y013992D01*
X026606Y017282D02*
X027020Y017282D01*
X027191Y017056D02*
X027441Y016806D01*
X027941Y016806D01*
X028191Y017056D01*
X028441Y016806D01*
X028941Y016806D01*
X029191Y017056D01*
X029191Y017556D01*
X028941Y017806D01*
X028441Y017806D01*
X028191Y017556D01*
X027941Y017806D01*
X027441Y017806D01*
X027191Y017556D01*
X027191Y017056D01*
X026813Y017075D02*
X026813Y017488D01*
X028457Y019056D02*
X028461Y019145D01*
X028473Y019234D01*
X028493Y019321D01*
X028522Y019407D01*
X028557Y019489D01*
X028600Y019567D01*
X028650Y019642D01*
X028707Y019711D01*
X028769Y019775D01*
X028838Y019833D01*
X028911Y019885D01*
X028988Y019930D01*
X029070Y019967D01*
X029154Y019997D01*
X029241Y020019D01*
X029329Y020034D01*
X029419Y020040D01*
X029508Y020038D01*
X029597Y020028D01*
X029685Y020009D01*
X029771Y019983D01*
X029853Y019949D01*
X029933Y019908D01*
X030008Y019860D01*
X030079Y019805D01*
X030145Y019744D01*
X030204Y019677D01*
X030258Y019605D01*
X030304Y019528D01*
X030344Y019448D01*
X030375Y019364D01*
X030400Y019278D01*
X030416Y019190D01*
X030424Y019101D01*
X030424Y019011D01*
X030416Y018922D01*
X030400Y018834D01*
X030375Y018748D01*
X030344Y018664D01*
X030304Y018584D01*
X030258Y018507D01*
X030204Y018435D01*
X030145Y018368D01*
X030079Y018307D01*
X030008Y018252D01*
X029933Y018204D01*
X029853Y018163D01*
X029771Y018129D01*
X029685Y018103D01*
X029597Y018084D01*
X029508Y018074D01*
X029419Y018072D01*
X029329Y018078D01*
X029241Y018093D01*
X029154Y018115D01*
X029070Y018145D01*
X028988Y018182D01*
X028911Y018227D01*
X028838Y018279D01*
X028769Y018337D01*
X028707Y018401D01*
X028650Y018470D01*
X028600Y018545D01*
X028557Y018623D01*
X028522Y018705D01*
X028493Y018791D01*
X028473Y018878D01*
X028461Y018967D01*
X028457Y019056D01*
X029803Y019310D02*
X029803Y019810D01*
X030548Y019078D02*
X030823Y019078D01*
X030548Y019078D02*
X030548Y018251D01*
X032674Y019078D02*
X034760Y019078D01*
X034760Y015535D01*
X030548Y015535D01*
X030548Y016361D01*
X032691Y014806D02*
X032941Y014806D01*
X033191Y014806D02*
X033566Y014806D01*
X034066Y014806D02*
X034566Y014806D01*
X034816Y014806D02*
X035066Y014806D01*
X034941Y014931D02*
X034941Y014681D01*
X034791Y014006D02*
X033091Y014006D01*
X032741Y013211D02*
X032741Y012406D01*
X032722Y012596D02*
X032442Y012596D01*
X032582Y012596D02*
X032582Y013017D01*
X032442Y012877D01*
X032261Y012947D02*
X032191Y013017D01*
X032051Y013017D01*
X031981Y012947D01*
X031981Y012877D01*
X032051Y012806D01*
X032191Y012806D01*
X032261Y012736D01*
X032261Y012666D01*
X032191Y012596D01*
X032051Y012596D01*
X031981Y012666D01*
X030547Y012667D02*
X030340Y012667D01*
X030340Y012511D01*
X030444Y012563D01*
X030495Y012563D01*
X030547Y012511D01*
X030547Y012408D01*
X030495Y012356D01*
X030392Y012356D01*
X030340Y012408D01*
X030188Y012356D02*
X030085Y012460D01*
X030136Y012460D02*
X029981Y012460D01*
X029981Y012356D02*
X029981Y012667D01*
X030136Y012667D01*
X030188Y012615D01*
X030188Y012511D01*
X030136Y012460D01*
X028941Y012606D02*
X028941Y012006D01*
X028939Y011986D01*
X028933Y011968D01*
X028924Y011950D01*
X028912Y011935D01*
X028897Y011923D01*
X028879Y011914D01*
X028861Y011908D01*
X028841Y011906D01*
X028691Y011906D01*
X028641Y011956D01*
X027241Y011956D01*
X027191Y011906D01*
X027041Y011906D01*
X027021Y011908D01*
X027003Y011914D01*
X026985Y011923D01*
X026970Y011935D01*
X026958Y011950D01*
X026949Y011968D01*
X026943Y011986D01*
X026941Y012006D01*
X026941Y012606D01*
X026943Y012626D01*
X026949Y012644D01*
X026958Y012662D01*
X026970Y012677D01*
X026985Y012689D01*
X027003Y012698D01*
X027021Y012704D01*
X027041Y012706D01*
X027191Y012706D01*
X027241Y012656D01*
X028641Y012656D01*
X028691Y012706D01*
X028841Y012706D01*
X028861Y012704D01*
X028879Y012698D01*
X028897Y012689D01*
X028912Y012677D01*
X028924Y012662D01*
X028933Y012644D01*
X028939Y012626D01*
X028941Y012606D01*
X028469Y012405D02*
X028469Y012198D01*
X028417Y012146D01*
X028314Y012146D01*
X028262Y012198D01*
X028469Y012405D01*
X028417Y012457D01*
X028314Y012457D01*
X028262Y012405D01*
X028262Y012198D01*
X028110Y012405D02*
X027903Y012198D01*
X027903Y012146D01*
X027751Y012146D02*
X027544Y012146D01*
X027751Y012353D01*
X027751Y012405D01*
X027699Y012457D01*
X027596Y012457D01*
X027544Y012405D01*
X027903Y012457D02*
X028110Y012457D01*
X028110Y012405D01*
X028641Y012956D02*
X027241Y012956D01*
X027191Y012906D01*
X027041Y012906D01*
X027021Y012908D01*
X027003Y012914D01*
X026985Y012923D01*
X026970Y012935D01*
X026958Y012950D01*
X026949Y012968D01*
X026943Y012986D01*
X026941Y013006D01*
X026941Y013606D01*
X026943Y013626D01*
X026949Y013644D01*
X026958Y013662D01*
X026970Y013677D01*
X026985Y013689D01*
X027003Y013698D01*
X027021Y013704D01*
X027041Y013706D01*
X027191Y013706D01*
X027241Y013656D01*
X028641Y013656D01*
X028691Y013706D01*
X028841Y013706D01*
X028861Y013704D01*
X028879Y013698D01*
X028897Y013689D01*
X028912Y013677D01*
X028924Y013662D01*
X028933Y013644D01*
X028939Y013626D01*
X028941Y013606D01*
X028941Y013006D01*
X028939Y012986D01*
X028933Y012968D01*
X028924Y012950D01*
X028912Y012935D01*
X028897Y012923D01*
X028879Y012914D01*
X028861Y012908D01*
X028841Y012906D01*
X028691Y012906D01*
X028641Y012956D01*
X028215Y013156D02*
X028059Y013260D01*
X028215Y013363D01*
X028059Y013467D02*
X028059Y013156D01*
X027907Y013208D02*
X027907Y013415D01*
X027700Y013208D01*
X027752Y013156D01*
X027855Y013156D01*
X027907Y013208D01*
X027700Y013208D02*
X027700Y013415D01*
X027752Y013467D01*
X027855Y013467D01*
X027907Y013415D01*
X027548Y013156D02*
X027341Y013156D01*
X027445Y013156D02*
X027445Y013467D01*
X027341Y013363D01*
X027191Y011706D02*
X027041Y011706D01*
X027021Y011704D01*
X027003Y011698D01*
X026985Y011689D01*
X026970Y011677D01*
X026958Y011662D01*
X026949Y011644D01*
X026943Y011626D01*
X026941Y011606D01*
X026941Y011006D01*
X026943Y010986D01*
X026949Y010968D01*
X026958Y010950D01*
X026970Y010935D01*
X026985Y010923D01*
X027003Y010914D01*
X027021Y010908D01*
X027041Y010906D01*
X027191Y010906D01*
X027241Y010956D01*
X028641Y010956D01*
X028691Y010906D01*
X028841Y010906D01*
X028861Y010908D01*
X028879Y010914D01*
X028897Y010923D01*
X028912Y010935D01*
X028924Y010950D01*
X028933Y010968D01*
X028939Y010986D01*
X028941Y011006D01*
X028941Y011606D01*
X028939Y011626D01*
X028933Y011644D01*
X028924Y011662D01*
X028912Y011677D01*
X028897Y011689D01*
X028879Y011698D01*
X028861Y011704D01*
X028841Y011706D01*
X028691Y011706D01*
X028641Y011656D01*
X027241Y011656D01*
X027191Y011706D01*
X027544Y011457D02*
X027544Y011301D01*
X027647Y011353D01*
X027699Y011353D01*
X027751Y011301D01*
X027751Y011198D01*
X027699Y011146D01*
X027596Y011146D01*
X027544Y011198D01*
X027544Y011457D02*
X027751Y011457D01*
X027903Y011301D02*
X028058Y011301D01*
X028110Y011250D01*
X028110Y011198D01*
X028058Y011146D01*
X027955Y011146D01*
X027903Y011198D01*
X027903Y011301D01*
X028006Y011405D01*
X028110Y011457D01*
X028262Y011405D02*
X028314Y011457D01*
X028417Y011457D01*
X028469Y011405D01*
X028262Y011198D01*
X028314Y011146D01*
X028417Y011146D01*
X028469Y011198D01*
X028469Y011405D01*
X028262Y011405D02*
X028262Y011198D01*
X028691Y010706D02*
X028641Y010656D01*
X027241Y010656D01*
X027191Y010706D01*
X027041Y010706D01*
X027021Y010704D01*
X027003Y010698D01*
X026985Y010689D01*
X026970Y010677D01*
X026958Y010662D01*
X026949Y010644D01*
X026943Y010626D01*
X026941Y010606D01*
X026941Y010006D01*
X026943Y009986D01*
X026949Y009968D01*
X026958Y009950D01*
X026970Y009935D01*
X026985Y009923D01*
X027003Y009914D01*
X027021Y009908D01*
X027041Y009906D01*
X027191Y009906D01*
X027241Y009956D01*
X028641Y009956D01*
X028691Y009906D01*
X028841Y009906D01*
X028861Y009908D01*
X028879Y009914D01*
X028897Y009923D01*
X028912Y009935D01*
X028924Y009950D01*
X028933Y009968D01*
X028939Y009986D01*
X028941Y010006D01*
X028941Y010606D01*
X028939Y010626D01*
X028933Y010644D01*
X028924Y010662D01*
X028912Y010677D01*
X028897Y010689D01*
X028879Y010698D01*
X028861Y010704D01*
X028841Y010706D01*
X028691Y010706D01*
X028477Y010353D02*
X028322Y010250D01*
X028477Y010146D01*
X028322Y010146D02*
X028322Y010457D01*
X028066Y010457D02*
X028066Y010146D01*
X027963Y010146D02*
X028170Y010146D01*
X027963Y010353D02*
X028066Y010457D01*
X027835Y010198D02*
X027835Y010146D01*
X027783Y010146D01*
X027783Y010198D01*
X027835Y010198D01*
X027631Y010146D02*
X027424Y010146D01*
X027528Y010146D02*
X027528Y010457D01*
X027424Y010353D01*
X029981Y010356D02*
X029981Y010667D01*
X030136Y010667D01*
X030188Y010615D01*
X030188Y010511D01*
X030136Y010460D01*
X029981Y010460D01*
X030085Y010460D02*
X030188Y010356D01*
X030340Y010408D02*
X030340Y010460D01*
X030392Y010511D01*
X030495Y010511D01*
X030547Y010460D01*
X030547Y010408D01*
X030495Y010356D01*
X030392Y010356D01*
X030340Y010408D01*
X030392Y010511D02*
X030340Y010563D01*
X030340Y010615D01*
X030392Y010667D01*
X030495Y010667D01*
X030547Y010615D01*
X030547Y010563D01*
X030495Y010511D01*
X030340Y011356D02*
X030340Y011408D01*
X030547Y011615D01*
X030547Y011667D01*
X030340Y011667D01*
X030188Y011615D02*
X030188Y011511D01*
X030136Y011460D01*
X029981Y011460D01*
X030085Y011460D02*
X030188Y011356D01*
X029981Y011356D02*
X029981Y011667D01*
X030136Y011667D01*
X030188Y011615D01*
X032154Y011062D02*
X035697Y011062D01*
X035697Y005550D01*
X032154Y005550D01*
X032154Y011062D01*
X033091Y011606D02*
X034791Y011606D01*
X035141Y012406D02*
X035141Y013199D01*
X033241Y012806D02*
X033244Y012870D01*
X033253Y012933D01*
X033267Y012995D01*
X033287Y013055D01*
X033312Y013114D01*
X033343Y013170D01*
X033378Y013223D01*
X033419Y013272D01*
X033463Y013318D01*
X033512Y013359D01*
X033564Y013396D01*
X033619Y013428D01*
X033677Y013454D01*
X033737Y013476D01*
X033799Y013491D01*
X033861Y013501D01*
X033925Y013506D01*
X033989Y013504D01*
X034052Y013497D01*
X034114Y013484D01*
X034175Y013466D01*
X034234Y013442D01*
X034291Y013412D01*
X034345Y013378D01*
X034395Y013339D01*
X034442Y013295D01*
X034484Y013248D01*
X034522Y013197D01*
X034555Y013142D01*
X034583Y013085D01*
X034606Y013025D01*
X034623Y012964D01*
X034634Y012901D01*
X034640Y012838D01*
X034640Y012774D01*
X034634Y012711D01*
X034623Y012648D01*
X034606Y012587D01*
X034583Y012527D01*
X034555Y012470D01*
X034522Y012415D01*
X034484Y012364D01*
X034442Y012317D01*
X034395Y012273D01*
X034345Y012234D01*
X034291Y012200D01*
X034234Y012170D01*
X034175Y012146D01*
X034114Y012128D01*
X034052Y012115D01*
X033989Y012108D01*
X033925Y012106D01*
X033861Y012111D01*
X033799Y012121D01*
X033737Y012136D01*
X033677Y012158D01*
X033619Y012184D01*
X033564Y012216D01*
X033512Y012253D01*
X033463Y012294D01*
X033419Y012340D01*
X033378Y012389D01*
X033343Y012442D01*
X033312Y012498D01*
X033287Y012557D01*
X033267Y012617D01*
X033253Y012679D01*
X033244Y012742D01*
X033241Y012806D01*
X030547Y013511D02*
X030340Y013511D01*
X030495Y013667D01*
X030495Y013356D01*
X030188Y013356D02*
X030085Y013460D01*
X030136Y013460D02*
X029981Y013460D01*
X029981Y013356D02*
X029981Y013667D01*
X030136Y013667D01*
X030188Y013615D01*
X030188Y013511D01*
X030136Y013460D01*
X031581Y008267D02*
X031651Y008267D01*
X031721Y008197D01*
X031791Y008267D01*
X031861Y008267D01*
X031931Y008197D01*
X031931Y008057D01*
X031861Y007987D01*
X031931Y007807D02*
X031511Y007527D01*
X031511Y007347D02*
X031511Y007066D01*
X031931Y007066D01*
X031931Y007347D01*
X031931Y007527D02*
X031511Y007807D01*
X031581Y007987D02*
X031511Y008057D01*
X031511Y008197D01*
X031581Y008267D01*
X031721Y008197D02*
X031721Y008127D01*
X031721Y007206D02*
X031721Y007066D01*
X030941Y006856D02*
X030941Y006256D01*
X030939Y006236D01*
X030933Y006218D01*
X030924Y006200D01*
X030912Y006185D01*
X030897Y006173D01*
X030879Y006164D01*
X030861Y006158D01*
X030841Y006156D01*
X030691Y006156D01*
X030641Y006206D01*
X029241Y006206D01*
X029191Y006156D01*
X029041Y006156D01*
X029021Y006158D01*
X029003Y006164D01*
X028985Y006173D01*
X028970Y006185D01*
X028958Y006200D01*
X028949Y006218D01*
X028943Y006236D01*
X028941Y006256D01*
X028941Y006856D01*
X028943Y006876D01*
X028949Y006894D01*
X028958Y006912D01*
X028970Y006927D01*
X028985Y006939D01*
X029003Y006948D01*
X029021Y006954D01*
X029041Y006956D01*
X029191Y006956D01*
X029241Y006906D01*
X030641Y006906D01*
X030691Y006956D01*
X030841Y006956D01*
X030861Y006954D01*
X030879Y006948D01*
X030897Y006939D01*
X030912Y006927D01*
X030924Y006912D01*
X030933Y006894D01*
X030939Y006876D01*
X030941Y006856D01*
X030266Y006665D02*
X030059Y006458D01*
X030111Y006406D01*
X030215Y006406D01*
X030266Y006458D01*
X030266Y006665D01*
X030215Y006717D01*
X030111Y006717D01*
X030059Y006665D01*
X030059Y006458D01*
X029907Y006665D02*
X029700Y006458D01*
X029700Y006406D01*
X029548Y006406D02*
X029341Y006406D01*
X029548Y006613D01*
X029548Y006665D01*
X029496Y006717D01*
X029393Y006717D01*
X029341Y006665D01*
X029700Y006717D02*
X029907Y006717D01*
X029907Y006665D01*
X029191Y005956D02*
X029241Y005906D01*
X030641Y005906D01*
X030691Y005956D01*
X030841Y005956D01*
X030861Y005954D01*
X030879Y005948D01*
X030897Y005939D01*
X030912Y005927D01*
X030924Y005912D01*
X030933Y005894D01*
X030939Y005876D01*
X030941Y005856D01*
X030941Y005256D01*
X030939Y005236D01*
X030933Y005218D01*
X030924Y005200D01*
X030912Y005185D01*
X030897Y005173D01*
X030879Y005164D01*
X030861Y005158D01*
X030841Y005156D01*
X030691Y005156D01*
X030641Y005206D01*
X029241Y005206D01*
X029191Y005156D01*
X029041Y005156D01*
X029021Y005158D01*
X029003Y005164D01*
X028985Y005173D01*
X028970Y005185D01*
X028958Y005200D01*
X028949Y005218D01*
X028943Y005236D01*
X028941Y005256D01*
X028941Y005856D01*
X028943Y005876D01*
X028949Y005894D01*
X028958Y005912D01*
X028970Y005927D01*
X028985Y005939D01*
X029003Y005948D01*
X029021Y005954D01*
X029041Y005956D01*
X029191Y005956D01*
X029393Y005717D02*
X029341Y005665D01*
X029393Y005717D02*
X029496Y005717D01*
X029548Y005665D01*
X029548Y005613D01*
X029341Y005406D01*
X029548Y005406D01*
X029700Y005406D02*
X029700Y005458D01*
X029907Y005665D01*
X029907Y005717D01*
X029700Y005717D01*
X030059Y005665D02*
X030111Y005717D01*
X030215Y005717D01*
X030266Y005665D01*
X030059Y005458D01*
X030111Y005406D01*
X030215Y005406D01*
X030266Y005458D01*
X030266Y005665D01*
X030059Y005665D02*
X030059Y005458D01*
X030641Y004906D02*
X029241Y004906D01*
X029191Y004956D01*
X029041Y004956D01*
X029021Y004954D01*
X029003Y004948D01*
X028985Y004939D01*
X028970Y004927D01*
X028958Y004912D01*
X028949Y004894D01*
X028943Y004876D01*
X028941Y004856D01*
X028941Y004256D01*
X028943Y004236D01*
X028949Y004218D01*
X028958Y004200D01*
X028970Y004185D01*
X028985Y004173D01*
X029003Y004164D01*
X029021Y004158D01*
X029041Y004156D01*
X029191Y004156D01*
X029241Y004206D01*
X030641Y004206D01*
X030691Y004156D01*
X030841Y004156D01*
X030861Y004158D01*
X030879Y004164D01*
X030897Y004173D01*
X030912Y004185D01*
X030924Y004200D01*
X030933Y004218D01*
X030939Y004236D01*
X030941Y004256D01*
X030941Y004856D01*
X030939Y004876D01*
X030933Y004894D01*
X030924Y004912D01*
X030912Y004927D01*
X030897Y004939D01*
X030879Y004948D01*
X030861Y004954D01*
X030841Y004956D01*
X030691Y004956D01*
X030641Y004906D01*
X030266Y004665D02*
X030059Y004458D01*
X030111Y004406D01*
X030215Y004406D01*
X030266Y004458D01*
X030266Y004665D01*
X030215Y004717D01*
X030111Y004717D01*
X030059Y004665D01*
X030059Y004458D01*
X029907Y004665D02*
X029700Y004458D01*
X029700Y004406D01*
X029548Y004406D02*
X029341Y004406D01*
X029548Y004613D01*
X029548Y004665D01*
X029496Y004717D01*
X029393Y004717D01*
X029341Y004665D01*
X029700Y004717D02*
X029907Y004717D01*
X029907Y004665D01*
X029016Y003581D02*
X029016Y002281D01*
X029014Y002253D01*
X029008Y002225D01*
X028998Y002198D01*
X028984Y002173D01*
X028967Y002150D01*
X028947Y002130D01*
X028924Y002113D01*
X028899Y002099D01*
X028872Y002089D01*
X028844Y002083D01*
X028816Y002081D01*
X028316Y002081D01*
X028288Y002083D01*
X028260Y002089D01*
X028233Y002099D01*
X028208Y002113D01*
X028185Y002130D01*
X028165Y002150D01*
X028148Y002173D01*
X028134Y002198D01*
X028124Y002225D01*
X028118Y002253D01*
X028116Y002281D01*
X028116Y003581D01*
X028118Y003609D01*
X028124Y003637D01*
X028134Y003664D01*
X028148Y003689D01*
X028165Y003712D01*
X028185Y003732D01*
X028208Y003749D01*
X028233Y003763D01*
X028260Y003773D01*
X028288Y003779D01*
X028316Y003781D01*
X028816Y003781D01*
X028844Y003779D01*
X028872Y003773D01*
X028899Y003763D01*
X028924Y003749D01*
X028947Y003732D01*
X028967Y003712D01*
X028984Y003689D01*
X028998Y003664D01*
X029008Y003637D01*
X029014Y003609D01*
X029016Y003581D01*
X028866Y003061D02*
X028266Y003061D01*
X028266Y002811D02*
X028866Y002811D01*
X028846Y001967D02*
X028846Y001756D01*
X028986Y001827D01*
X029056Y001827D01*
X029126Y001756D01*
X029126Y001616D01*
X029056Y001546D01*
X028916Y001546D01*
X028846Y001616D01*
X028666Y001546D02*
X028385Y001546D01*
X028526Y001546D02*
X028526Y001967D01*
X028385Y001827D01*
X028205Y001897D02*
X028135Y001967D01*
X027995Y001967D01*
X027925Y001897D01*
X027925Y001616D01*
X027995Y001546D01*
X028135Y001546D01*
X028205Y001616D01*
X028846Y001967D02*
X029126Y001967D01*
X029457Y002806D02*
X029461Y002895D01*
X029473Y002984D01*
X029493Y003071D01*
X029522Y003157D01*
X029557Y003239D01*
X029600Y003317D01*
X029650Y003392D01*
X029707Y003461D01*
X029769Y003525D01*
X029838Y003583D01*
X029911Y003635D01*
X029988Y003680D01*
X030070Y003717D01*
X030154Y003747D01*
X030241Y003769D01*
X030329Y003784D01*
X030419Y003790D01*
X030508Y003788D01*
X030597Y003778D01*
X030685Y003759D01*
X030771Y003733D01*
X030853Y003699D01*
X030933Y003658D01*
X031008Y003610D01*
X031079Y003555D01*
X031145Y003494D01*
X031204Y003427D01*
X031258Y003355D01*
X031304Y003278D01*
X031344Y003198D01*
X031375Y003114D01*
X031400Y003028D01*
X031416Y002940D01*
X031424Y002851D01*
X031424Y002761D01*
X031416Y002672D01*
X031400Y002584D01*
X031375Y002498D01*
X031344Y002414D01*
X031304Y002334D01*
X031258Y002257D01*
X031204Y002185D01*
X031145Y002118D01*
X031079Y002057D01*
X031008Y002002D01*
X030933Y001954D01*
X030853Y001913D01*
X030771Y001879D01*
X030685Y001853D01*
X030597Y001834D01*
X030508Y001824D01*
X030419Y001822D01*
X030329Y001828D01*
X030241Y001843D01*
X030154Y001865D01*
X030070Y001895D01*
X029988Y001932D01*
X029911Y001977D01*
X029838Y002029D01*
X029769Y002087D01*
X029707Y002151D01*
X029650Y002220D01*
X029600Y002295D01*
X029557Y002373D01*
X029522Y002455D01*
X029493Y002541D01*
X029473Y002628D01*
X029461Y002717D01*
X029457Y002806D01*
X031441Y003556D02*
X031384Y003626D01*
X031322Y003692D01*
X031256Y003754D01*
X031185Y003810D01*
X031111Y003862D01*
X031032Y003907D01*
X030951Y003947D01*
X030867Y003981D01*
X030781Y004009D01*
X030693Y004030D01*
X030604Y004045D01*
X030514Y004054D01*
X030423Y004056D01*
X030333Y004051D01*
X030243Y004040D01*
X030155Y004023D01*
X030067Y003999D01*
X029982Y003969D01*
X029899Y003932D01*
X029819Y003890D01*
X029742Y003842D01*
X029669Y003789D01*
X029600Y003731D01*
X029535Y003667D01*
X029475Y003600D01*
X029420Y003528D01*
X029371Y003452D01*
X029327Y003373D01*
X029289Y003291D01*
X029257Y003206D01*
X029231Y003119D01*
X029211Y003031D01*
X029198Y002941D01*
X029192Y002851D01*
X029192Y002761D01*
X029198Y002671D01*
X029211Y002581D01*
X029231Y002493D01*
X029257Y002406D01*
X029289Y002321D01*
X029327Y002239D01*
X029371Y002160D01*
X029420Y002084D01*
X029475Y002012D01*
X029535Y001945D01*
X029600Y001881D01*
X029669Y001823D01*
X029742Y001770D01*
X029819Y001722D01*
X029899Y001680D01*
X029982Y001643D01*
X030067Y001613D01*
X030155Y001589D01*
X030243Y001572D01*
X030333Y001561D01*
X030423Y001556D01*
X030514Y001558D01*
X030604Y001567D01*
X030693Y001582D01*
X030781Y001603D01*
X030867Y001631D01*
X030951Y001665D01*
X031032Y001705D01*
X031111Y001750D01*
X031185Y001802D01*
X031256Y001858D01*
X031322Y001920D01*
X031384Y001986D01*
X031441Y002056D01*
X031441Y003556D01*
X031731Y003276D02*
X032151Y003276D01*
X032151Y003136D02*
X032151Y003416D01*
X031871Y003136D02*
X031731Y003276D01*
X031801Y002956D02*
X031731Y002886D01*
X031731Y002675D01*
X032151Y002675D01*
X032151Y002886D01*
X032081Y002956D01*
X031801Y002956D01*
X031731Y002495D02*
X031731Y002215D01*
X032151Y002215D01*
X032151Y002495D01*
X031941Y002355D02*
X031941Y002215D01*
X032151Y002035D02*
X032151Y001755D01*
X031731Y001755D01*
X033441Y001756D02*
X033441Y001656D01*
X032850Y002806D02*
X032852Y002860D01*
X032860Y002913D01*
X032872Y002965D01*
X032889Y003017D01*
X032910Y003066D01*
X032936Y003113D01*
X032966Y003158D01*
X033000Y003199D01*
X033038Y003238D01*
X033079Y003273D01*
X033123Y003304D01*
X033169Y003331D01*
X033218Y003353D01*
X033269Y003371D01*
X033321Y003385D01*
X033374Y003393D01*
X033428Y003397D01*
X033481Y003396D01*
X033535Y003390D01*
X033587Y003379D01*
X033639Y003363D01*
X033689Y003343D01*
X033736Y003318D01*
X033782Y003289D01*
X033824Y003256D01*
X033864Y003219D01*
X033899Y003179D01*
X033931Y003136D01*
X033959Y003090D01*
X033983Y003041D01*
X034002Y002991D01*
X034017Y002939D01*
X034026Y002886D01*
X034031Y002833D01*
X034031Y002779D01*
X034026Y002726D01*
X034017Y002673D01*
X034002Y002621D01*
X033983Y002571D01*
X033959Y002522D01*
X033931Y002476D01*
X033899Y002433D01*
X033864Y002393D01*
X033824Y002356D01*
X033782Y002323D01*
X033737Y002294D01*
X033689Y002269D01*
X033639Y002249D01*
X033587Y002233D01*
X033535Y002222D01*
X033481Y002216D01*
X033428Y002215D01*
X033374Y002219D01*
X033321Y002227D01*
X033269Y002241D01*
X033218Y002259D01*
X033169Y002281D01*
X033123Y002308D01*
X033079Y002339D01*
X033038Y002374D01*
X033000Y002413D01*
X032966Y002454D01*
X032936Y002499D01*
X032910Y002546D01*
X032889Y002595D01*
X032872Y002647D01*
X032860Y002699D01*
X032852Y002752D01*
X032850Y002806D01*
X032291Y002806D02*
X032296Y002911D01*
X032310Y003014D01*
X032334Y003116D01*
X032366Y003216D01*
X032408Y003312D01*
X032458Y003404D01*
X032517Y003490D01*
X032583Y003572D01*
X032656Y003646D01*
X032736Y003714D01*
X032821Y003775D01*
X032912Y003827D01*
X033007Y003871D01*
X033106Y003906D01*
X033207Y003932D01*
X033310Y003949D01*
X033415Y003956D01*
X033519Y003953D01*
X033623Y003941D01*
X033726Y003920D01*
X033826Y003890D01*
X033923Y003850D01*
X034016Y003802D01*
X034104Y003746D01*
X034187Y003681D01*
X034263Y003610D01*
X034333Y003532D01*
X034395Y003448D01*
X034450Y003358D01*
X034496Y003264D01*
X034533Y003166D01*
X034561Y003066D01*
X034580Y002963D01*
X034590Y002858D01*
X034590Y002754D01*
X034580Y002649D01*
X034561Y002546D01*
X034533Y002446D01*
X034496Y002348D01*
X034450Y002254D01*
X034395Y002164D01*
X034333Y002080D01*
X034263Y002002D01*
X034187Y001931D01*
X034104Y001866D01*
X034016Y001810D01*
X033923Y001762D01*
X033826Y001722D01*
X033726Y001692D01*
X033623Y001671D01*
X033519Y001659D01*
X033415Y001656D01*
X033310Y001663D01*
X033207Y001680D01*
X033106Y001706D01*
X033007Y001741D01*
X032912Y001785D01*
X032821Y001837D01*
X032736Y001898D01*
X032656Y001966D01*
X032583Y002040D01*
X032517Y002122D01*
X032458Y002208D01*
X032408Y002300D01*
X032366Y002396D01*
X032334Y002496D01*
X032310Y002598D01*
X032296Y002701D01*
X032291Y002806D01*
X033441Y003856D02*
X033441Y003956D01*
X033446Y004381D02*
X033446Y004981D01*
X033696Y004981D02*
X033696Y004381D01*
X034216Y004231D02*
X034244Y004233D01*
X034272Y004239D01*
X034299Y004249D01*
X034324Y004263D01*
X034347Y004280D01*
X034367Y004300D01*
X034384Y004323D01*
X034398Y004348D01*
X034408Y004375D01*
X034414Y004403D01*
X034416Y004431D01*
X034416Y004931D01*
X034531Y004872D02*
X034531Y004591D01*
X034601Y004521D01*
X034741Y004521D01*
X034811Y004591D01*
X034992Y004521D02*
X035272Y004521D01*
X035132Y004521D02*
X035132Y004942D01*
X034992Y004802D01*
X034811Y004872D02*
X034741Y004942D01*
X034601Y004942D01*
X034531Y004872D01*
X034416Y004931D02*
X034414Y004959D01*
X034408Y004987D01*
X034398Y005014D01*
X034384Y005039D01*
X034367Y005062D01*
X034347Y005082D01*
X034324Y005099D01*
X034299Y005113D01*
X034272Y005123D01*
X034244Y005129D01*
X034216Y005131D01*
X032916Y005131D01*
X032888Y005129D01*
X032860Y005123D01*
X032833Y005113D01*
X032808Y005099D01*
X032785Y005082D01*
X032765Y005062D01*
X032748Y005039D01*
X032734Y005014D01*
X032724Y004987D01*
X032718Y004959D01*
X032716Y004931D01*
X032716Y004431D01*
X032718Y004403D01*
X032724Y004375D01*
X032734Y004348D01*
X032748Y004323D01*
X032765Y004300D01*
X032785Y004280D01*
X032808Y004263D01*
X032833Y004249D01*
X032860Y004239D01*
X032888Y004233D01*
X032916Y004231D01*
X034216Y004231D01*
X035452Y004591D02*
X035452Y004872D01*
X035522Y004942D01*
X035662Y004942D01*
X035732Y004872D01*
X035452Y004591D01*
X035522Y004521D01*
X035662Y004521D01*
X035732Y004591D01*
X035732Y004872D01*
X035538Y005684D02*
X035538Y005964D01*
X035398Y006104D01*
X035258Y005964D01*
X035258Y005684D01*
X035078Y005754D02*
X035008Y005684D01*
X034868Y005684D01*
X034798Y005754D01*
X034798Y006034D01*
X034868Y006104D01*
X035008Y006104D01*
X035078Y006034D01*
X035258Y005894D02*
X035538Y005894D01*
X034618Y005894D02*
X034547Y005824D01*
X034337Y005824D01*
X034337Y005684D02*
X034337Y006104D01*
X034547Y006104D01*
X034618Y006034D01*
X034618Y005894D01*
X034477Y005824D02*
X034618Y005684D01*
X028031Y005636D02*
X027824Y005636D01*
X027980Y005792D01*
X027980Y005481D01*
X027672Y005481D02*
X027465Y005481D01*
X027569Y005481D02*
X027569Y005792D01*
X027465Y005688D01*
X027313Y005636D02*
X027261Y005585D01*
X027106Y005585D01*
X027210Y005585D02*
X027313Y005481D01*
X027313Y005636D02*
X027313Y005740D01*
X027261Y005792D01*
X027106Y005792D01*
X027106Y005481D01*
X027106Y005042D02*
X027261Y005042D01*
X027313Y004990D01*
X027313Y004886D01*
X027261Y004835D01*
X027106Y004835D01*
X027210Y004835D02*
X027313Y004731D01*
X027465Y004731D02*
X027672Y004731D01*
X027569Y004731D02*
X027569Y005042D01*
X027465Y004938D01*
X027824Y004886D02*
X027824Y005042D01*
X028031Y005042D01*
X027980Y004938D02*
X028031Y004886D01*
X028031Y004783D01*
X027980Y004731D01*
X027876Y004731D01*
X027824Y004783D01*
X027824Y004886D02*
X027928Y004938D01*
X027980Y004938D01*
X027106Y005042D02*
X027106Y004731D01*
X026307Y004721D02*
X026027Y004721D01*
X026167Y004721D02*
X026167Y005142D01*
X026027Y005002D01*
X025847Y005072D02*
X025847Y004931D01*
X025777Y004861D01*
X025567Y004861D01*
X025567Y004721D02*
X025567Y005142D01*
X025777Y005142D01*
X025847Y005072D01*
X025386Y005072D02*
X025316Y005142D01*
X025176Y005142D01*
X025106Y005072D01*
X025106Y005002D01*
X025176Y004931D01*
X025316Y004931D01*
X025386Y004861D01*
X025386Y004791D01*
X025316Y004721D01*
X025176Y004721D01*
X025106Y004791D01*
X025066Y004056D02*
X025068Y004101D01*
X025074Y004147D01*
X025085Y004191D01*
X025099Y004234D01*
X025117Y004276D01*
X025139Y004316D01*
X025164Y004354D01*
X025193Y004389D01*
X025225Y004421D01*
X025259Y004451D01*
X025297Y004477D01*
X025336Y004500D01*
X025377Y004519D01*
X025420Y004534D01*
X025464Y004546D01*
X025509Y004553D01*
X025555Y004556D01*
X025600Y004555D01*
X025645Y004550D01*
X025690Y004540D01*
X025733Y004527D01*
X025776Y004510D01*
X025816Y004489D01*
X025854Y004464D01*
X025890Y004437D01*
X025924Y004406D01*
X025954Y004372D01*
X025981Y004335D01*
X026005Y004296D01*
X026025Y004255D01*
X026041Y004213D01*
X026053Y004169D01*
X026061Y004124D01*
X026065Y004079D01*
X026065Y004033D01*
X026061Y003988D01*
X026053Y003943D01*
X026041Y003899D01*
X026025Y003857D01*
X026005Y003816D01*
X025981Y003777D01*
X025954Y003740D01*
X025924Y003706D01*
X025890Y003675D01*
X025854Y003648D01*
X025816Y003623D01*
X025776Y003602D01*
X025733Y003585D01*
X025690Y003572D01*
X025645Y003562D01*
X025600Y003557D01*
X025555Y003556D01*
X025509Y003559D01*
X025464Y003566D01*
X025420Y003578D01*
X025377Y003593D01*
X025336Y003612D01*
X025297Y003635D01*
X025259Y003661D01*
X025225Y003691D01*
X025193Y003723D01*
X025164Y003758D01*
X025139Y003796D01*
X025117Y003836D01*
X025099Y003878D01*
X025085Y003921D01*
X025074Y003965D01*
X025068Y004011D01*
X025066Y004056D01*
X023166Y004056D02*
X023176Y004274D01*
X023206Y004491D01*
X023255Y004704D01*
X023323Y004911D01*
X023410Y005111D01*
X023515Y005303D01*
X023637Y005484D01*
X023775Y005654D01*
X023928Y005810D01*
X024094Y005952D01*
X024273Y006078D01*
X024462Y006187D01*
X024660Y006279D01*
X024866Y006352D01*
X025078Y006406D01*
X025293Y006440D01*
X025511Y006455D01*
X025730Y006450D01*
X025947Y006426D01*
X026161Y006381D01*
X026370Y006317D01*
X026572Y006235D01*
X026766Y006134D01*
X026950Y006017D01*
X027123Y005883D01*
X027282Y005734D01*
X027428Y005571D01*
X027558Y005395D01*
X027671Y005208D01*
X027767Y005012D01*
X027845Y004808D01*
X027904Y004598D01*
X027944Y004383D01*
X027964Y004165D01*
X027964Y003947D01*
X027944Y003729D01*
X027904Y003514D01*
X027845Y003304D01*
X027767Y003100D01*
X027671Y002904D01*
X027558Y002717D01*
X027428Y002541D01*
X027282Y002378D01*
X027123Y002229D01*
X026950Y002095D01*
X026766Y001978D01*
X026572Y001877D01*
X026370Y001795D01*
X026161Y001731D01*
X025947Y001686D01*
X025730Y001662D01*
X025511Y001657D01*
X025293Y001672D01*
X025078Y001706D01*
X024866Y001760D01*
X024660Y001833D01*
X024462Y001925D01*
X024273Y002034D01*
X024094Y002160D01*
X023928Y002302D01*
X023775Y002458D01*
X023637Y002628D01*
X023515Y002809D01*
X023410Y003001D01*
X023323Y003201D01*
X023255Y003408D01*
X023206Y003621D01*
X023176Y003838D01*
X023166Y004056D01*
X023076Y004116D02*
X023076Y003836D01*
X023076Y003976D02*
X022656Y003976D01*
X022796Y003836D01*
X023076Y003656D02*
X023076Y003376D01*
X023076Y003516D02*
X022656Y003516D01*
X022796Y003376D01*
X022726Y003195D02*
X022656Y003125D01*
X022656Y002985D01*
X022726Y002915D01*
X023006Y002915D01*
X023076Y002985D01*
X023076Y003125D01*
X023006Y003195D01*
X022516Y003156D02*
X022516Y004456D01*
X022514Y004484D01*
X022508Y004512D01*
X022498Y004539D01*
X022484Y004564D01*
X022467Y004587D01*
X022447Y004607D01*
X022424Y004624D01*
X022399Y004638D01*
X022372Y004648D01*
X022344Y004654D01*
X022316Y004656D01*
X021816Y004656D01*
X021788Y004654D01*
X021760Y004648D01*
X021733Y004638D01*
X021708Y004624D01*
X021685Y004607D01*
X021665Y004587D01*
X021648Y004564D01*
X021634Y004539D01*
X021624Y004512D01*
X021618Y004484D01*
X021616Y004456D01*
X021616Y003156D01*
X021618Y003128D01*
X021624Y003100D01*
X021634Y003073D01*
X021648Y003048D01*
X021665Y003025D01*
X021685Y003005D01*
X021708Y002988D01*
X021733Y002974D01*
X021760Y002964D01*
X021788Y002958D01*
X021816Y002956D01*
X022316Y002956D01*
X022344Y002958D01*
X022372Y002964D01*
X022399Y002974D01*
X022424Y002988D01*
X022447Y003005D01*
X022467Y003025D01*
X022484Y003048D01*
X022498Y003073D01*
X022508Y003100D01*
X022514Y003128D01*
X022516Y003156D01*
X022366Y003676D02*
X021766Y003676D01*
X021766Y003926D02*
X022366Y003926D01*
X021791Y005231D02*
X021763Y005233D01*
X021735Y005239D01*
X021708Y005249D01*
X021683Y005263D01*
X021660Y005280D01*
X021640Y005300D01*
X021623Y005323D01*
X021609Y005348D01*
X021599Y005375D01*
X021593Y005403D01*
X021591Y005431D01*
X020450Y005516D02*
X020036Y005516D01*
X020036Y006137D01*
X019814Y006137D02*
X019607Y006137D01*
X019710Y006137D02*
X019710Y005516D01*
X019607Y005516D02*
X019814Y005516D01*
X019376Y005620D02*
X019376Y006033D01*
X019273Y006137D01*
X018962Y006137D01*
X018962Y005516D01*
X019273Y005516D01*
X019376Y005620D01*
X018731Y005827D02*
X018318Y005827D01*
X018087Y006033D02*
X018087Y005620D01*
X017983Y005516D01*
X017777Y005516D01*
X017673Y005620D01*
X018087Y006033D01*
X017983Y006137D01*
X017777Y006137D01*
X017673Y006033D01*
X017673Y005620D01*
X017442Y005620D02*
X017442Y005723D01*
X017339Y005827D01*
X017029Y005827D01*
X017029Y005620D01*
X017132Y005516D01*
X017339Y005516D01*
X017442Y005620D01*
X017236Y006033D02*
X017029Y005827D01*
X017236Y006033D02*
X017442Y006137D01*
X016798Y006137D02*
X016591Y006137D01*
X016694Y006137D02*
X016694Y005620D01*
X016591Y005516D01*
X016488Y005516D01*
X016384Y005620D01*
X016153Y005620D02*
X016153Y005723D01*
X016050Y005827D01*
X015843Y005827D01*
X015740Y005930D01*
X015740Y006033D01*
X015843Y006137D01*
X016050Y006137D01*
X016153Y006033D01*
X016153Y005930D01*
X016050Y005827D01*
X015843Y005827D02*
X015740Y005723D01*
X015740Y005620D01*
X015843Y005516D01*
X016050Y005516D01*
X016153Y005620D01*
X015509Y005516D02*
X015095Y005516D01*
X015509Y005930D01*
X015509Y006033D01*
X015405Y006137D01*
X015199Y006137D01*
X015095Y006033D01*
X014864Y006033D02*
X014761Y006137D01*
X014554Y006137D01*
X014451Y006033D01*
X014451Y005620D01*
X014554Y005516D01*
X014761Y005516D01*
X014864Y005620D01*
X014220Y005516D02*
X014220Y006137D01*
X013806Y006137D02*
X014220Y005516D01*
X013806Y005516D02*
X013806Y006137D01*
X013575Y006137D02*
X013162Y006137D01*
X013162Y005516D01*
X013575Y005516D01*
X013368Y005827D02*
X013162Y005827D01*
X012791Y003506D02*
X014091Y003506D01*
X014119Y003504D01*
X014147Y003498D01*
X014174Y003488D01*
X014199Y003474D01*
X014222Y003457D01*
X014242Y003437D01*
X014259Y003414D01*
X014273Y003389D01*
X014283Y003362D01*
X014289Y003334D01*
X014291Y003306D01*
X014291Y002806D01*
X014425Y002866D02*
X014495Y002796D01*
X014635Y002796D01*
X014705Y002866D01*
X014885Y002796D02*
X015166Y002796D01*
X015026Y002796D02*
X015026Y003217D01*
X014885Y003077D01*
X014705Y003147D02*
X014635Y003217D01*
X014495Y003217D01*
X014425Y003147D01*
X014425Y002866D01*
X014291Y002806D02*
X014289Y002778D01*
X014283Y002750D01*
X014273Y002723D01*
X014259Y002698D01*
X014242Y002675D01*
X014222Y002655D01*
X014199Y002638D01*
X014174Y002624D01*
X014147Y002614D01*
X014119Y002608D01*
X014091Y002606D01*
X012791Y002606D01*
X012763Y002608D01*
X012735Y002614D01*
X012708Y002624D01*
X012683Y002638D01*
X012660Y002655D01*
X012640Y002675D01*
X012623Y002698D01*
X012609Y002723D01*
X012599Y002750D01*
X012593Y002778D01*
X012591Y002806D01*
X012591Y003306D01*
X012593Y003334D01*
X012599Y003362D01*
X012609Y003389D01*
X012623Y003414D01*
X012640Y003437D01*
X012660Y003457D01*
X012683Y003474D01*
X012708Y003488D01*
X012735Y003498D01*
X012763Y003504D01*
X012791Y003506D01*
X012291Y003306D02*
X012291Y002806D01*
X012289Y002778D01*
X012283Y002750D01*
X012273Y002723D01*
X012259Y002698D01*
X012242Y002675D01*
X012222Y002655D01*
X012199Y002638D01*
X012174Y002624D01*
X012147Y002614D01*
X012119Y002608D01*
X012091Y002606D01*
X010791Y002606D01*
X010763Y002608D01*
X010735Y002614D01*
X010708Y002624D01*
X010683Y002638D01*
X010660Y002655D01*
X010640Y002675D01*
X010623Y002698D01*
X010609Y002723D01*
X010599Y002750D01*
X010593Y002778D01*
X010591Y002806D01*
X010591Y003306D01*
X010593Y003334D01*
X010599Y003362D01*
X010609Y003389D01*
X010623Y003414D01*
X010640Y003437D01*
X010660Y003457D01*
X010683Y003474D01*
X010708Y003488D01*
X010735Y003498D01*
X010763Y003504D01*
X010791Y003506D01*
X012091Y003506D01*
X012119Y003504D01*
X012147Y003498D01*
X012174Y003488D01*
X012199Y003474D01*
X012222Y003457D01*
X012242Y003437D01*
X012259Y003414D01*
X012273Y003389D01*
X012283Y003362D01*
X012289Y003334D01*
X012291Y003306D01*
X011571Y003356D02*
X011571Y002756D01*
X011321Y002756D02*
X011321Y003356D01*
X010482Y003122D02*
X010482Y003052D01*
X010202Y002771D01*
X010482Y002771D01*
X010022Y002771D02*
X009742Y002771D01*
X009882Y002771D02*
X009882Y003192D01*
X009742Y003052D01*
X009561Y003122D02*
X009491Y003192D01*
X009351Y003192D01*
X009281Y003122D01*
X009281Y002841D01*
X009351Y002771D01*
X009491Y002771D01*
X009561Y002841D01*
X010202Y003122D02*
X010272Y003192D01*
X010412Y003192D01*
X010482Y003122D01*
X013311Y003356D02*
X013311Y002756D01*
X013561Y002756D02*
X013561Y003356D01*
X015346Y003147D02*
X015416Y003217D01*
X015556Y003217D01*
X015626Y003147D01*
X015626Y003077D01*
X015556Y003006D01*
X015626Y002936D01*
X015626Y002866D01*
X015556Y002796D01*
X015416Y002796D01*
X015346Y002866D01*
X015486Y003006D02*
X015556Y003006D01*
X016591Y002806D02*
X016591Y003306D01*
X016593Y003334D01*
X016599Y003362D01*
X016609Y003389D01*
X016623Y003414D01*
X016640Y003437D01*
X016660Y003457D01*
X016683Y003474D01*
X016708Y003488D01*
X016735Y003498D01*
X016763Y003504D01*
X016791Y003506D01*
X018091Y003506D01*
X018119Y003504D01*
X018147Y003498D01*
X018174Y003488D01*
X018199Y003474D01*
X018222Y003457D01*
X018242Y003437D01*
X018259Y003414D01*
X018273Y003389D01*
X018283Y003362D01*
X018289Y003334D01*
X018291Y003306D01*
X018291Y002806D01*
X018289Y002778D01*
X018283Y002750D01*
X018273Y002723D01*
X018259Y002698D01*
X018242Y002675D01*
X018222Y002655D01*
X018199Y002638D01*
X018174Y002624D01*
X018147Y002614D01*
X018119Y002608D01*
X018091Y002606D01*
X016791Y002606D01*
X016763Y002608D01*
X016735Y002614D01*
X016708Y002624D01*
X016683Y002638D01*
X016660Y002655D01*
X016640Y002675D01*
X016623Y002698D01*
X016609Y002723D01*
X016599Y002750D01*
X016593Y002778D01*
X016591Y002806D01*
X017321Y002756D02*
X017321Y003356D01*
X017571Y003356D02*
X017571Y002756D01*
X018531Y002966D02*
X018531Y003247D01*
X018601Y003317D01*
X018741Y003317D01*
X018811Y003247D01*
X018992Y003177D02*
X019132Y003317D01*
X019132Y002896D01*
X018992Y002896D02*
X019272Y002896D01*
X019452Y003106D02*
X019732Y003106D01*
X019662Y002896D02*
X019662Y003317D01*
X019452Y003106D01*
X018811Y002966D02*
X018741Y002896D01*
X018601Y002896D01*
X018531Y002966D01*
X022311Y007256D02*
X022311Y007856D01*
X022561Y007856D02*
X022561Y007256D01*
X027106Y006667D02*
X027106Y006356D01*
X027106Y006460D02*
X027261Y006460D01*
X027313Y006511D01*
X027313Y006615D01*
X027261Y006667D01*
X027106Y006667D01*
X027210Y006460D02*
X027313Y006356D01*
X027465Y006356D02*
X027672Y006356D01*
X027569Y006356D02*
X027569Y006667D01*
X027465Y006563D01*
X027824Y006615D02*
X027876Y006667D01*
X027980Y006667D01*
X028031Y006615D01*
X028031Y006563D01*
X027824Y006356D01*
X028031Y006356D01*
X033441Y019156D02*
X033441Y019256D01*
X034856Y019541D02*
X034926Y019471D01*
X035066Y019471D01*
X035136Y019541D01*
X035136Y019611D01*
X035066Y019681D01*
X034856Y019681D01*
X034856Y019541D01*
X034856Y019681D02*
X034996Y019822D01*
X035136Y019892D01*
X035317Y019892D02*
X035317Y019611D01*
X035457Y019471D01*
X035597Y019611D01*
X035597Y019892D01*
X032850Y020306D02*
X032852Y020360D01*
X032860Y020413D01*
X032872Y020465D01*
X032889Y020517D01*
X032910Y020566D01*
X032936Y020613D01*
X032966Y020658D01*
X033000Y020699D01*
X033038Y020738D01*
X033079Y020773D01*
X033123Y020804D01*
X033169Y020831D01*
X033218Y020853D01*
X033269Y020871D01*
X033321Y020885D01*
X033374Y020893D01*
X033428Y020897D01*
X033481Y020896D01*
X033535Y020890D01*
X033587Y020879D01*
X033639Y020863D01*
X033689Y020843D01*
X033736Y020818D01*
X033782Y020789D01*
X033824Y020756D01*
X033864Y020719D01*
X033899Y020679D01*
X033931Y020636D01*
X033959Y020590D01*
X033983Y020541D01*
X034002Y020491D01*
X034017Y020439D01*
X034026Y020386D01*
X034031Y020333D01*
X034031Y020279D01*
X034026Y020226D01*
X034017Y020173D01*
X034002Y020121D01*
X033983Y020071D01*
X033959Y020022D01*
X033931Y019976D01*
X033899Y019933D01*
X033864Y019893D01*
X033824Y019856D01*
X033782Y019823D01*
X033737Y019794D01*
X033689Y019769D01*
X033639Y019749D01*
X033587Y019733D01*
X033535Y019722D01*
X033481Y019716D01*
X033428Y019715D01*
X033374Y019719D01*
X033321Y019727D01*
X033269Y019741D01*
X033218Y019759D01*
X033169Y019781D01*
X033123Y019808D01*
X033079Y019839D01*
X033038Y019874D01*
X033000Y019913D01*
X032966Y019954D01*
X032936Y019999D01*
X032910Y020046D01*
X032889Y020095D01*
X032872Y020147D01*
X032860Y020199D01*
X032852Y020252D01*
X032850Y020306D01*
X032291Y020306D02*
X032296Y020411D01*
X032310Y020514D01*
X032334Y020616D01*
X032366Y020716D01*
X032408Y020812D01*
X032458Y020904D01*
X032517Y020990D01*
X032583Y021072D01*
X032656Y021146D01*
X032736Y021214D01*
X032821Y021275D01*
X032912Y021327D01*
X033007Y021371D01*
X033106Y021406D01*
X033207Y021432D01*
X033310Y021449D01*
X033415Y021456D01*
X033519Y021453D01*
X033623Y021441D01*
X033726Y021420D01*
X033826Y021390D01*
X033923Y021350D01*
X034016Y021302D01*
X034104Y021246D01*
X034187Y021181D01*
X034263Y021110D01*
X034333Y021032D01*
X034395Y020948D01*
X034450Y020858D01*
X034496Y020764D01*
X034533Y020666D01*
X034561Y020566D01*
X034580Y020463D01*
X034590Y020358D01*
X034590Y020254D01*
X034580Y020149D01*
X034561Y020046D01*
X034533Y019946D01*
X034496Y019848D01*
X034450Y019754D01*
X034395Y019664D01*
X034333Y019580D01*
X034263Y019502D01*
X034187Y019431D01*
X034104Y019366D01*
X034016Y019310D01*
X033923Y019262D01*
X033826Y019222D01*
X033726Y019192D01*
X033623Y019171D01*
X033519Y019159D01*
X033415Y019156D01*
X033310Y019163D01*
X033207Y019180D01*
X033106Y019206D01*
X033007Y019241D01*
X032912Y019285D01*
X032821Y019337D01*
X032736Y019398D01*
X032656Y019466D01*
X032583Y019540D01*
X032517Y019622D01*
X032458Y019708D01*
X032408Y019800D01*
X032366Y019896D01*
X032334Y019996D01*
X032310Y020098D01*
X032296Y020201D01*
X032291Y020306D01*
X031695Y020194D02*
X031195Y020194D01*
X029957Y020556D02*
X029961Y020645D01*
X029973Y020734D01*
X029993Y020821D01*
X030022Y020907D01*
X030057Y020989D01*
X030100Y021067D01*
X030150Y021142D01*
X030207Y021211D01*
X030269Y021275D01*
X030338Y021333D01*
X030411Y021385D01*
X030488Y021430D01*
X030570Y021467D01*
X030654Y021497D01*
X030741Y021519D01*
X030829Y021534D01*
X030919Y021540D01*
X031008Y021538D01*
X031097Y021528D01*
X031185Y021509D01*
X031271Y021483D01*
X031353Y021449D01*
X031433Y021408D01*
X031508Y021360D01*
X031579Y021305D01*
X031645Y021244D01*
X031704Y021177D01*
X031758Y021105D01*
X031804Y021028D01*
X031844Y020948D01*
X031875Y020864D01*
X031900Y020778D01*
X031916Y020690D01*
X031924Y020601D01*
X031924Y020511D01*
X031916Y020422D01*
X031900Y020334D01*
X031875Y020248D01*
X031844Y020164D01*
X031804Y020084D01*
X031758Y020007D01*
X031704Y019935D01*
X031645Y019868D01*
X031579Y019807D01*
X031508Y019752D01*
X031433Y019704D01*
X031353Y019663D01*
X031271Y019629D01*
X031185Y019603D01*
X031097Y019584D01*
X031008Y019574D01*
X030919Y019572D01*
X030829Y019578D01*
X030741Y019593D01*
X030654Y019615D01*
X030570Y019645D01*
X030488Y019682D01*
X030411Y019727D01*
X030338Y019779D01*
X030269Y019837D01*
X030207Y019901D01*
X030150Y019970D01*
X030100Y020045D01*
X030057Y020123D01*
X030022Y020205D01*
X029993Y020291D01*
X029973Y020378D01*
X029961Y020467D01*
X029957Y020556D01*
X029691Y020806D02*
X029191Y020806D01*
X028941Y021056D01*
X028691Y020806D01*
X028191Y020806D01*
X027941Y021056D01*
X027941Y021556D01*
X028191Y021806D01*
X028691Y021806D01*
X028941Y021556D01*
X029191Y021806D01*
X029691Y021806D01*
X029941Y021556D01*
X029941Y021056D01*
X029691Y020806D01*
X027692Y021066D02*
X027412Y021066D01*
X027552Y021066D02*
X027552Y021487D01*
X027412Y021347D01*
X027231Y021487D02*
X027091Y021487D01*
X027161Y021487D02*
X027161Y021136D01*
X027091Y021066D01*
X027021Y021066D01*
X026951Y021136D01*
X033441Y021356D02*
X033441Y021456D01*
X003626Y004897D02*
X003626Y004616D01*
X003556Y004546D01*
X003416Y004546D01*
X003346Y004616D01*
X003416Y004756D02*
X003346Y004827D01*
X003346Y004897D01*
X003416Y004967D01*
X003556Y004967D01*
X003626Y004897D01*
X003626Y004756D02*
X003416Y004756D01*
X003166Y004616D02*
X003096Y004546D01*
X002956Y004546D01*
X002886Y004616D01*
X002886Y004897D01*
X002956Y004967D01*
X003096Y004967D01*
X003166Y004897D01*
D12*
X026866Y018556D03*
X026866Y019556D03*
X026866Y020556D03*
D13*
X022341Y017331D02*
X022400Y017329D01*
X022458Y017323D01*
X022517Y017314D01*
X022574Y017300D01*
X022630Y017283D01*
X022685Y017262D01*
X022739Y017238D01*
X022791Y017210D01*
X022841Y017179D01*
X022889Y017145D01*
X022934Y017108D01*
X022977Y017067D01*
X023018Y017024D01*
X023055Y016979D01*
X023089Y016931D01*
X023120Y016881D01*
X023148Y016829D01*
X023172Y016775D01*
X023193Y016720D01*
X023210Y016664D01*
X023224Y016607D01*
X023233Y016548D01*
X023239Y016490D01*
X023241Y016431D01*
X023239Y016372D01*
X023233Y016314D01*
X023224Y016255D01*
X023210Y016198D01*
X023193Y016142D01*
X023172Y016087D01*
X023148Y016033D01*
X023120Y015981D01*
X023089Y015931D01*
X023055Y015883D01*
X023018Y015838D01*
X022977Y015795D01*
X022934Y015754D01*
X022889Y015717D01*
X022841Y015683D01*
X022791Y015652D01*
X022739Y015624D01*
X022685Y015600D01*
X022630Y015579D01*
X022574Y015562D01*
X022517Y015548D01*
X022458Y015539D01*
X022400Y015533D01*
X022341Y015531D01*
X020041Y015531D02*
X019982Y015533D01*
X019924Y015539D01*
X019865Y015548D01*
X019808Y015562D01*
X019752Y015579D01*
X019697Y015600D01*
X019643Y015624D01*
X019591Y015652D01*
X019541Y015683D01*
X019493Y015717D01*
X019448Y015754D01*
X019405Y015795D01*
X019364Y015838D01*
X019327Y015883D01*
X019293Y015931D01*
X019262Y015981D01*
X019234Y016033D01*
X019210Y016087D01*
X019189Y016142D01*
X019172Y016198D01*
X019158Y016255D01*
X019149Y016314D01*
X019143Y016372D01*
X019141Y016431D01*
X019143Y016490D01*
X019149Y016548D01*
X019158Y016607D01*
X019172Y016664D01*
X019189Y016720D01*
X019210Y016775D01*
X019234Y016829D01*
X019262Y016881D01*
X019293Y016931D01*
X019327Y016979D01*
X019364Y017024D01*
X019405Y017067D01*
X019448Y017108D01*
X019493Y017145D01*
X019541Y017179D01*
X019591Y017210D01*
X019643Y017238D01*
X019697Y017262D01*
X019752Y017283D01*
X019808Y017300D01*
X019865Y017314D01*
X019924Y017323D01*
X019982Y017329D01*
X020041Y017331D01*
X011191Y012181D02*
X011230Y012179D01*
X011269Y012173D01*
X011307Y012163D01*
X011344Y012149D01*
X011379Y012131D01*
X011411Y012109D01*
X011442Y012085D01*
X011470Y012057D01*
X011494Y012026D01*
X011516Y011993D01*
X011534Y011959D01*
X011548Y011922D01*
X011558Y011884D01*
X011564Y011845D01*
X011566Y011806D01*
X011564Y011767D01*
X011558Y011728D01*
X011548Y011690D01*
X011534Y011653D01*
X011516Y011618D01*
X011494Y011586D01*
X011470Y011555D01*
X011442Y011527D01*
X011411Y011503D01*
X011378Y011481D01*
X011344Y011463D01*
X011307Y011449D01*
X011269Y011439D01*
X011230Y011433D01*
X011191Y011431D01*
X008441Y002306D02*
X008401Y002250D01*
X008358Y002195D01*
X008311Y002144D01*
X008262Y002095D01*
X008210Y002049D01*
X008155Y002006D01*
X008098Y001966D01*
X008039Y001930D01*
X007977Y001897D01*
X007914Y001868D01*
X007850Y001843D01*
X007784Y001821D01*
X007716Y001803D01*
X007648Y001789D01*
X007580Y001779D01*
X007510Y001773D01*
X007441Y001771D01*
X007372Y001773D01*
X007302Y001779D01*
X007234Y001789D01*
X007166Y001803D01*
X007098Y001821D01*
X007032Y001843D01*
X006968Y001868D01*
X006905Y001897D01*
X006843Y001930D01*
X006784Y001966D01*
X006727Y002006D01*
X006672Y002049D01*
X006620Y002095D01*
X006571Y002144D01*
X006524Y002195D01*
X006481Y002250D01*
X006441Y002306D01*
D14*
X005016Y006181D03*
X004616Y007306D03*
X002866Y006181D03*
X006766Y007306D03*
X013491Y011806D03*
X015641Y011806D03*
X005516Y016306D03*
X003366Y016306D03*
X026866Y013306D03*
X026866Y012306D03*
X026866Y011306D03*
X026866Y010306D03*
X029016Y010306D03*
X029016Y011306D03*
X029016Y012306D03*
X029016Y013306D03*
X028866Y006556D03*
X028866Y005556D03*
X028866Y004556D03*
X031016Y004556D03*
X031016Y005556D03*
X031016Y006556D03*
D15*
X033816Y014806D02*
X033818Y014828D01*
X033824Y014850D01*
X033834Y014870D01*
X033847Y014888D01*
X033863Y014904D01*
X033882Y014916D01*
X033902Y014925D01*
X033924Y014930D01*
X033947Y014931D01*
X033969Y014928D01*
X033990Y014921D01*
X034010Y014910D01*
X034027Y014896D01*
X034042Y014879D01*
X034054Y014860D01*
X034061Y014839D01*
X034065Y014817D01*
X034065Y014795D01*
X034061Y014773D01*
X034054Y014752D01*
X034042Y014733D01*
X034027Y014716D01*
X034010Y014702D01*
X033990Y014691D01*
X033969Y014684D01*
X033947Y014681D01*
X033924Y014682D01*
X033902Y014687D01*
X033882Y014696D01*
X033863Y014708D01*
X033847Y014724D01*
X033834Y014742D01*
X033824Y014762D01*
X033818Y014784D01*
X033816Y014806D01*
X034191Y015056D02*
X034164Y015081D01*
X034134Y015103D01*
X034102Y015121D01*
X034068Y015136D01*
X034033Y015148D01*
X033996Y015156D01*
X033960Y015160D01*
X033922Y015160D01*
X033886Y015156D01*
X033849Y015148D01*
X033814Y015136D01*
X033780Y015121D01*
X033748Y015103D01*
X033718Y015081D01*
X033691Y015056D01*
X033666Y015029D01*
X033644Y014999D01*
X033626Y014967D01*
X033611Y014933D01*
X033599Y014898D01*
X033591Y014861D01*
X033587Y014825D01*
X033587Y014787D01*
X033591Y014751D01*
X033599Y014714D01*
X033611Y014679D01*
X033626Y014645D01*
X033644Y014613D01*
X033666Y014583D01*
X033691Y014556D01*
X033718Y014531D01*
X033748Y014509D01*
X033780Y014491D01*
X033814Y014476D01*
X033849Y014464D01*
X033886Y014456D01*
X033922Y014452D01*
X033960Y014452D01*
X033996Y014456D01*
X034033Y014464D01*
X034068Y014476D01*
X034102Y014491D01*
X034134Y014509D01*
X034164Y014531D01*
X034191Y014556D01*
M02*
