G75*
G70*
%OFA0B0*%
%FSLAX24Y24*%
%IPPOS*%
%LPD*%
%AMOC8*
5,1,8,0,0,1.08239X$1,22.5*
%
%ADD10R,0.0500X0.0500*%
%ADD11O,0.0500X0.1000*%
%ADD12R,0.0600X0.0600*%
%ADD13C,0.0600*%
%ADD14R,0.0515X0.0515*%
%ADD15C,0.0515*%
%ADD16C,0.0500*%
%ADD17R,0.0520X0.0520*%
%ADD18O,0.0520X0.1040*%
%ADD19OC8,0.0520*%
%ADD20OC8,0.0515*%
%ADD21C,0.1580*%
%ADD22O,0.1200X0.0600*%
%ADD23R,0.0476X0.0476*%
%ADD24C,0.0476*%
%ADD25C,0.0520*%
%ADD26C,0.1424*%
%ADD27C,0.1004*%
%ADD28C,0.2100*%
%ADD29OC8,0.1000*%
%ADD30R,0.0560X0.0560*%
%ADD31C,0.0560*%
%ADD32C,0.0960*%
%ADD33OC8,0.0476*%
%ADD34C,0.0160*%
%ADD35OC8,0.0525*%
%ADD36C,0.0525*%
%ADD37C,0.0080*%
D10*
X011941Y008806D03*
D11*
X012941Y008806D03*
X013941Y008806D03*
X014941Y008806D03*
X015941Y008806D03*
X016941Y008806D03*
X017941Y008806D03*
X018941Y008806D03*
X019941Y008806D03*
X020941Y008806D03*
X021941Y008806D03*
X022941Y008806D03*
X023941Y008806D03*
X024941Y008806D03*
X025941Y008806D03*
X026941Y008806D03*
X027941Y008806D03*
X028941Y008806D03*
X029941Y008806D03*
X030941Y008806D03*
X030941Y014806D03*
X029941Y014806D03*
X028941Y014806D03*
X027941Y014806D03*
X026941Y014806D03*
X025941Y014806D03*
X024941Y014806D03*
X023941Y014806D03*
X022941Y014806D03*
X021941Y014806D03*
X020941Y014806D03*
X019941Y014806D03*
X018941Y014806D03*
X017941Y014806D03*
X016941Y014806D03*
X015941Y014806D03*
X014941Y014806D03*
X013941Y014806D03*
X012941Y014806D03*
X011941Y014806D03*
D12*
X008941Y019806D03*
X006441Y002806D03*
D13*
X007441Y002806D03*
X008441Y002806D03*
X003111Y009306D03*
X002511Y010306D03*
X003111Y013296D03*
X002511Y014296D03*
X009941Y019806D03*
X010941Y019806D03*
X011941Y019806D03*
X012941Y019806D03*
X012441Y016056D03*
X011441Y016056D03*
X013441Y016056D03*
X014441Y016056D03*
X015441Y016056D03*
X016441Y016056D03*
X017441Y016056D03*
X018441Y016056D03*
X019941Y018306D03*
X019941Y019306D03*
X023941Y016056D03*
X024941Y016056D03*
X025941Y016056D03*
X026941Y016056D03*
X027941Y016056D03*
X028941Y016056D03*
X029941Y016056D03*
X028691Y017306D03*
X027691Y017306D03*
X032661Y013696D03*
X032661Y011916D03*
X035221Y011916D03*
X035221Y013696D03*
X030941Y007556D03*
X029941Y007556D03*
X028941Y007556D03*
X027941Y007556D03*
X026941Y007556D03*
X025941Y007556D03*
X024941Y007556D03*
X023941Y007556D03*
X028441Y021306D03*
X029441Y021306D03*
D14*
X008941Y021306D03*
X030691Y003088D03*
D15*
X030191Y002525D03*
X011941Y021306D03*
X010941Y021306D03*
X009941Y021306D03*
D16*
X009941Y019806D01*
X010941Y019806D02*
X010941Y021306D01*
X011941Y021306D02*
X011941Y019806D01*
X012941Y019806D02*
X015441Y019806D01*
X016941Y018306D01*
X017941Y018306D01*
X019941Y018306D01*
X019941Y017306D01*
X020566Y017306D02*
X026691Y017306D01*
X027691Y017306D01*
X026691Y017306D02*
X026691Y021306D01*
X028441Y021306D01*
X029441Y021306D02*
X029441Y020556D01*
X030441Y020556D01*
X029441Y020556D02*
X027691Y020556D01*
X027691Y018556D02*
X029441Y018556D01*
X030566Y017431D01*
X030566Y017306D01*
X030548Y017306D01*
X022941Y010306D02*
X020441Y012806D01*
X019941Y013306D01*
X019941Y014806D01*
X019941Y015556D01*
X019441Y016056D01*
X019441Y016556D01*
X019447Y016612D01*
X019456Y016666D01*
X019469Y016720D01*
X019485Y016773D01*
X019506Y016825D01*
X019529Y016875D01*
X019556Y016924D01*
X019587Y016970D01*
X019621Y017014D01*
X019657Y017056D01*
X019697Y017095D01*
X019739Y017131D01*
X019783Y017165D01*
X019830Y017195D01*
X019878Y017221D01*
X019929Y017245D01*
X019980Y017265D01*
X020033Y017281D01*
X020109Y017295D01*
X020184Y017306D01*
X020261Y017313D01*
X020337Y017316D01*
X020414Y017317D01*
X020490Y017313D01*
X020566Y017306D01*
X016941Y018056D02*
X016941Y018306D01*
X008941Y019806D02*
X008941Y021306D01*
X022941Y010306D02*
X022941Y008806D01*
X022941Y007556D01*
X022941Y006806D01*
X023816Y005931D01*
X023816Y004931D01*
X023191Y004306D01*
X022066Y004306D01*
X021191Y004306D01*
X020941Y004306D02*
X020941Y004681D01*
X020316Y005306D01*
X018566Y005306D01*
X017941Y004681D01*
X017941Y004306D01*
X017941Y004056D01*
X016941Y003056D01*
X013941Y003056D01*
X012941Y004056D01*
X012941Y004306D01*
X011941Y004306D01*
X011941Y004056D01*
X010941Y003056D01*
X008691Y003056D01*
X008441Y002806D01*
X008441Y003431D01*
X007941Y003931D01*
X007941Y004306D01*
X007941Y004556D01*
X007191Y005306D01*
X006816Y005306D01*
X007191Y007306D02*
X007941Y007306D01*
X020941Y007306D02*
X020941Y006681D01*
X021941Y005681D01*
D17*
X020941Y007306D03*
X016941Y021056D03*
D18*
X015941Y021056D03*
X014941Y021056D03*
X013941Y021056D03*
X013941Y018056D03*
X014941Y018056D03*
X015941Y018056D03*
X016941Y018056D03*
X016941Y007306D03*
X015941Y007306D03*
X014941Y007306D03*
X013941Y007306D03*
X012941Y007306D03*
X011941Y007306D03*
X010941Y007306D03*
X009941Y007306D03*
X008941Y007306D03*
X007941Y007306D03*
X007941Y004306D03*
X008941Y004306D03*
X009941Y004306D03*
X010941Y004306D03*
X011941Y004306D03*
X012941Y004306D03*
X013941Y004306D03*
X014941Y004306D03*
X015941Y004306D03*
X016941Y004306D03*
X017941Y004306D03*
X018941Y004306D03*
X019941Y004306D03*
X020941Y004306D03*
X019941Y007306D03*
X018941Y007306D03*
X017941Y007306D03*
D19*
X021941Y007556D03*
X022941Y007556D03*
X022941Y005681D03*
X021941Y005681D03*
X022066Y004306D03*
X022066Y003306D03*
X017941Y003056D03*
X016941Y003056D03*
X013941Y003056D03*
X012941Y003056D03*
X011941Y003056D03*
X010941Y003056D03*
X006816Y005306D03*
X006816Y006306D03*
X007191Y007306D03*
X005441Y006181D03*
X005191Y004806D03*
X004191Y004806D03*
X002441Y006181D03*
X004191Y007306D03*
X009441Y008556D03*
X010441Y008556D03*
X010441Y009806D03*
X009441Y009806D03*
X009441Y010806D03*
X010441Y010806D03*
X013066Y011806D03*
X010441Y012806D03*
X009441Y012806D03*
X009441Y013806D03*
X010441Y013806D03*
X010441Y015056D03*
X009441Y015056D03*
X005941Y016306D03*
X002941Y016306D03*
X016066Y011806D03*
X017941Y018306D03*
X017941Y019306D03*
X026441Y013306D03*
X026441Y012306D03*
X026441Y011306D03*
X026441Y010306D03*
X029441Y010306D03*
X029441Y011306D03*
X029441Y012306D03*
X029441Y013306D03*
X028441Y006556D03*
X028441Y005556D03*
X028441Y004556D03*
X028566Y003431D03*
X028566Y002431D03*
X031441Y004556D03*
X031441Y005556D03*
X031441Y006556D03*
X033066Y004681D03*
X034066Y004681D03*
D20*
X031191Y002525D03*
X029691Y003088D03*
D21*
X030548Y017306D03*
X032910Y017306D03*
X031729Y019157D03*
D22*
X027691Y019556D03*
X027691Y020556D03*
X027691Y018556D03*
D23*
X029441Y018556D03*
X030441Y020556D03*
D24*
X031441Y020556D03*
X029441Y019556D03*
D25*
X022141Y016431D03*
X020241Y016431D03*
D26*
X032941Y010275D03*
X034713Y008306D03*
X032941Y006338D03*
D27*
X032941Y008306D03*
D28*
X033441Y002806D03*
X021816Y019556D03*
X033441Y020306D03*
X004441Y020306D03*
X004441Y002806D03*
D29*
X024286Y004056D03*
X026846Y004056D03*
D30*
X006941Y013556D03*
D31*
X007941Y013056D03*
X006941Y012556D03*
X007941Y012056D03*
X006941Y011556D03*
X007941Y011056D03*
X006941Y010556D03*
X007941Y010056D03*
D32*
X005641Y008706D03*
X005641Y014906D03*
D33*
X008998Y016572D03*
X010691Y017557D03*
D34*
X010066Y016932D01*
X010066Y016181D01*
X010941Y015306D01*
X010941Y013931D01*
X013066Y011806D01*
X012941Y011806D01*
X011441Y010306D01*
X011441Y004806D01*
X011941Y004306D01*
X010441Y003806D02*
X010441Y007806D01*
X010941Y008306D01*
X010941Y011181D01*
X010691Y011431D01*
X009566Y011431D01*
X007941Y013056D01*
X008691Y013806D01*
X009441Y013806D01*
X010441Y013806D02*
X010441Y014431D01*
X008566Y014431D01*
X007441Y013306D01*
X007441Y012556D01*
X007941Y012056D01*
X007441Y012056D02*
X007441Y009806D01*
X008691Y008556D01*
X009441Y008556D01*
X009441Y007806D01*
X008941Y007306D01*
X008441Y007931D02*
X008441Y006056D01*
X009941Y004556D01*
X009941Y004306D01*
X010441Y003806D02*
X010191Y003556D01*
X009691Y003556D01*
X008941Y004306D01*
X007941Y003181D02*
X006316Y004806D01*
X006316Y009306D01*
X005066Y010556D01*
X004316Y010556D01*
X002566Y012431D01*
X002566Y014181D01*
X002451Y014296D01*
X002511Y014296D01*
X002451Y014296D02*
X002441Y014306D01*
X003111Y013296D02*
X003111Y016261D01*
X002941Y016306D01*
X006441Y013056D02*
X006941Y013556D01*
X008441Y015056D01*
X009441Y015056D01*
X010441Y015056D02*
X010441Y014431D01*
X010441Y013806D02*
X010441Y012806D01*
X011441Y014431D02*
X016066Y009806D01*
X020941Y009806D01*
X021941Y008806D01*
X023941Y008806D02*
X023941Y007556D01*
X025316Y006181D01*
X025816Y006181D01*
X027691Y004306D01*
X027691Y003306D01*
X028566Y002431D01*
X028566Y002556D01*
X025566Y002556D01*
X024316Y003806D01*
X024286Y004056D01*
X026191Y007556D02*
X028191Y005556D01*
X028441Y005556D01*
X029691Y004806D02*
X029691Y003088D01*
X030191Y002525D02*
X030191Y004306D01*
X031441Y005556D01*
X031441Y004556D02*
X031191Y004306D01*
X031191Y002525D01*
X031941Y002556D02*
X031941Y007056D01*
X031441Y007556D01*
X030941Y007556D01*
X030941Y008806D01*
X029941Y008806D02*
X026441Y012306D01*
X026441Y011306D02*
X028941Y008806D01*
X028941Y007556D01*
X027941Y007556D02*
X027941Y008806D01*
X026441Y010306D01*
X025941Y008806D02*
X025941Y007556D01*
X026191Y007556D01*
X026066Y007056D02*
X025441Y007056D01*
X024941Y007556D01*
X024941Y008806D01*
X026941Y008806D02*
X026941Y007556D01*
X027941Y006556D01*
X028441Y006556D01*
X029941Y007556D02*
X029941Y008806D01*
X029441Y010306D02*
X030941Y010306D01*
X032941Y008306D01*
X031441Y006556D02*
X029691Y004806D01*
X028441Y004681D02*
X028441Y004556D01*
X028441Y004681D02*
X026066Y007056D01*
X029441Y010306D02*
X029441Y011306D01*
X029441Y012306D01*
X029441Y013306D02*
X030941Y014806D01*
X031566Y014806D01*
X032691Y013681D01*
X032676Y013696D01*
X032661Y013696D01*
X032691Y013681D02*
X032706Y013696D01*
X035221Y013696D01*
X035221Y011916D02*
X032581Y011916D01*
X032566Y011931D01*
X032581Y011916D02*
X032661Y011916D01*
X032691Y011931D02*
X031816Y012806D01*
X020441Y012806D01*
X020941Y014806D02*
X020941Y015806D01*
X020241Y016506D01*
X020241Y016431D01*
X020241Y016506D02*
X020191Y016556D01*
X018941Y015556D02*
X018941Y014806D01*
X018941Y015556D02*
X018441Y016056D01*
X017941Y015556D02*
X017941Y014806D01*
X017941Y015556D02*
X017441Y016056D01*
X016941Y015556D02*
X016941Y014806D01*
X015941Y014806D02*
X015941Y015556D01*
X015441Y016056D01*
X014941Y015556D02*
X014941Y014806D01*
X014941Y015556D02*
X014441Y016056D01*
X014941Y016556D01*
X014941Y018056D01*
X013941Y018056D02*
X013941Y016556D01*
X013441Y016056D01*
X013941Y015556D01*
X013941Y014806D01*
X013941Y013806D01*
X015941Y011806D01*
X016066Y011806D01*
X011441Y014431D02*
X011441Y015306D01*
X010691Y016056D01*
X010691Y016556D01*
X011191Y017056D01*
X011191Y018556D01*
X009941Y019806D01*
X010941Y019806D02*
X011691Y019056D01*
X011691Y016306D01*
X011441Y016056D01*
X011941Y015556D01*
X011941Y014806D01*
X012941Y014806D02*
X012941Y015556D01*
X012441Y016056D01*
X012441Y019306D01*
X011941Y019806D01*
X008998Y016572D02*
X009015Y016556D01*
X009191Y016306D01*
X010441Y015056D01*
X006441Y013056D02*
X006441Y009931D01*
X008441Y007931D01*
X009941Y007306D02*
X009941Y009306D01*
X009441Y009806D01*
X009191Y009806D01*
X007941Y011056D01*
X007441Y012056D02*
X006941Y012556D01*
X010441Y010806D02*
X010441Y008556D01*
X010441Y009806D01*
X011941Y008806D02*
X011941Y007306D01*
X012941Y007306D02*
X012941Y008806D01*
X013941Y008806D02*
X013941Y007306D01*
X014941Y007306D02*
X014941Y008806D01*
X015941Y008806D02*
X015941Y007306D01*
X016941Y007306D02*
X016941Y008806D01*
X017941Y008806D02*
X017941Y007306D01*
X018441Y006806D02*
X015941Y004306D01*
X018941Y004306D02*
X018941Y003056D01*
X018191Y002306D01*
X008191Y002306D01*
X007941Y002556D01*
X007941Y003181D01*
X006941Y003431D02*
X005941Y004431D01*
X005941Y006556D01*
X003191Y009306D01*
X003111Y009306D01*
X002511Y010306D02*
X002441Y010306D01*
X002441Y006181D01*
X006941Y003431D02*
X006941Y002431D01*
X007441Y001931D01*
X019441Y001931D01*
X019941Y002431D01*
X019941Y004306D01*
X018441Y006806D02*
X018441Y008306D01*
X018941Y008806D01*
X021941Y014806D02*
X021941Y016306D01*
X022141Y016506D01*
X022141Y016431D01*
X022141Y016506D02*
X022191Y016556D01*
X023941Y016056D02*
X023941Y014806D01*
X024941Y014806D02*
X024941Y016056D01*
X025941Y016056D02*
X025941Y014806D01*
X026941Y014806D02*
X026941Y016056D01*
X027941Y016056D02*
X027941Y014806D01*
X028941Y014806D02*
X028941Y016056D01*
X029941Y016056D02*
X029941Y014806D01*
X016941Y015556D02*
X016441Y016056D01*
X006441Y002806D02*
X006441Y002306D01*
X007191Y001556D01*
X030941Y001556D01*
X031941Y002556D01*
D35*
X025566Y002556D03*
X025566Y005556D03*
D36*
X007941Y016306D03*
X006941Y016306D03*
X006941Y017306D03*
X007941Y017306D03*
X007941Y018306D03*
X006941Y018306D03*
X005941Y018306D03*
X004941Y018306D03*
X003941Y018306D03*
X002941Y018306D03*
X002941Y017306D03*
X003941Y017306D03*
X004941Y017306D03*
X005941Y017306D03*
X005941Y019306D03*
X006941Y019306D03*
X007941Y019306D03*
X007941Y020306D03*
X006941Y020306D03*
X005941Y020306D03*
X005941Y021306D03*
X006941Y021306D03*
X007941Y021306D03*
X002941Y019306D03*
X017941Y020306D03*
X018941Y020306D03*
X019941Y020306D03*
X019941Y021306D03*
X018941Y021306D03*
X017941Y021306D03*
X018941Y019306D03*
D37*
X001941Y003306D02*
X003941Y001306D01*
X033941Y001306D01*
X035941Y003306D01*
X035941Y019806D01*
X033941Y021806D01*
X003941Y021806D01*
X001941Y019806D01*
X001941Y003306D01*
X001941Y019681D02*
X001941Y019806D01*
M02*
